<?xml version="1.0" encoding="UTF-8" standalone="no"?>
<!-- Created with Inkscape (http://www.inkscape.org/) -->

<svg
   xmlns:dc="http://purl.org/dc/elements/1.1/"
   xmlns:cc="http://creativecommons.org/ns#"
   xmlns:rdf="http://www.w3.org/1999/02/22-rdf-syntax-ns#"
   xmlns:svg="http://www.w3.org/2000/svg"
   xmlns="http://www.w3.org/2000/svg"
   xmlns:sodipodi="http://sodipodi.sourceforge.net/DTD/sodipodi-0.dtd"
   xmlns:inkscape="http://www.inkscape.org/namespaces/inkscape"
   version="1.1"
   id="svg64"
   width="848"
   height="432"
   viewBox="0 0 848 432"
   sodipodi:docname="kek.svg"
   inkscape:version="0.92.4 (f8dce91, 2019-08-02)">
  <metadata
     id="metadata70">
    <rdf:RDF>
      <cc:Work
         rdf:about="">
        <dc:format>image/svg+xml</dc:format>
        <dc:type
           rdf:resource="http://purl.org/dc/dcmitype/StillImage" />
        <dc:title />
      </cc:Work>
    </rdf:RDF>
  </metadata>
  <defs
     id="defs68" />
  <sodipodi:namedview
     pagecolor="#ffffff"
     bordercolor="#666666"
     borderopacity="1"
     objecttolerance="10"
     gridtolerance="10"
     guidetolerance="10"
     inkscape:pageopacity="0"
     inkscape:pageshadow="2"
     inkscape:window-width="1920"
     inkscape:window-height="1016"
     id="namedview66"
     showgrid="false"
     inkscape:zoom="0.58703205"
     inkscape:cx="609.12689"
     inkscape:cy="-139.91366"
     inkscape:window-x="0"
     inkscape:window-y="27"
     inkscape:window-maximized="1"
     inkscape:current-layer="svg64" />
  <g
     transform="matrix(1.1331465,0,0,1.1331465,-52.244499,469.04526)"
     id="g44">
    <path
       inkscape:connector-curvature="0"
       id="path30"
       d="m 553,329.79979 c -8.44249,-2.88886 -14.65278,-6.59322 -20.37189,-12.15156 C 527.89464,313.04782 520,301.72905 520,299.54295 c 0,-0.962 9.33048,-5.54433 20.62124,-10.12737 0.61668,-0.25032 2.26629,1.49877 3.6658,3.88686 4.20123,7.16885 11.6611,13.41151 18.35027,15.35611 4.98898,1.45034 6.91963,1.53358 13.13975,0.56656 8.77356,-1.36399 12.36436,-3.05647 17.9825,-8.47583 5.7129,-5.51077 8.33461,-12.63002 8.99514,-24.42634 l 0.51809,-9.25267 -6.67039,4.47299 c -15.82242,10.61009 -32.9096,11.26031 -50.6688,1.92812 -8.71268,-4.57838 -13.88129,-9.0627 -19.46569,-16.88853 -9.21662,-12.91594 -13.16588,-25.63227 -12.20694,-39.30544 1.55485,-22.1699 18.75483,-44.46196 40.48549,-52.47128 8.82701,-3.25339 22.65727,-3.01861 31.07964,0.52762 3.47935,1.46497 8.54185,4.25545 11.25,6.20106 4.72691,3.39595 4.92445,3.44753 4.93755,1.28914 0.008,-1.23659 0.285,-3.26084 0.61664,-4.49834 0.58241,-2.17328 1.00817,-2.25 12.48634,-2.25 H 627 l -0.0174,58.75 c -0.019,64.45915 -0.18054,66.59279 -5.95593,78.69404 -3.68798,7.72746 -11.56262,16.63627 -18.80323,21.27264 -11.41218,7.30754 -35.37708,9.74549 -49.22348,5.0075 z m 33.92597,-76.28041 c 23.75311,-12.92806 23.71334,-50.80402 -0.0672,-63.97562 -4.76229,-2.63777 -6.30489,-2.96815 -13.85877,-2.96815 -7.53456,0 -9.10238,0.33371 -13.80355,2.93808 -6.61505,3.66462 -11.64978,9.16282 -15.05593,16.44191 -2.28975,4.8933 -2.6298,6.91308 -2.6298,15.62001 0,8.67409 0.34417,10.7353 2.59575,15.54563 6.30721,13.47486 16.91704,20.31332 30.4607,19.63314 5.44638,-0.27353 8.28077,-1.01545 12.3588,-3.235 z M 155.5,280.45573 C 132.7648,277.03756 116.10144,269.42677 101.2972,255.69925 89.063686,244.35548 79.322355,228.09766 74.859285,211.57561 72.00983,201.02708 71.722516,179.04739 74.299433,168.7467 c 7.665695,-30.64201 30.343827,-55.66668 59.678087,-65.85306 16.06798,-5.579642 37.02695,-6.527542 53.26314,-2.40889 11.42879,2.89915 22.73943,7.97393 31.15217,13.97714 10.23488,7.30345 10.22444,6.44935 0.20181,16.51864 l -8.74728,8.788 -7.92179,-5.30236 c -4.79107,-3.20685 -11.18296,-6.38025 -16.17368,-8.02982 -7.17565,-2.37174 -9.88218,-2.73205 -20.75189,-2.76265 -11.43909,-0.0322 -13.23141,0.22401 -21.11775,3.01865 -26.29891,9.31941 -43.13047,31.5625 -44.557538,58.88326 -0.6631,12.69483 1.179588,21.76382 6.767998,33.30945 5.35471,11.06282 16.7679,22.84245 27.60681,28.49318 19.57595,10.20566 43.04992,10.24391 62.35079,0.10159 15.47798,-8.13344 24.19351,-20.12362 27.35957,-37.63927 l 0.67514,-3.73506 -29.79251,-0.26494 -29.79251,-0.26495 -0.28078,-12.25 -0.28078,-12.25 h 42.45882 42.45883 l 0.71127,5.69282 c 1.02031,8.16632 -0.15676,23.50909 -2.51691,32.80718 -7.39417,29.13018 -30.3567,51.3388 -60.5448,58.55697 -7.92332,1.89452 -25.2311,3.19134 -31.00565,2.32315 z m 152.90211,-0.32531 c -23.4041,-3.66956 -42.8341,-21.16841 -48.91663,-44.05481 -1.92858,-7.25654 -1.87958,-21.68375 0.0997,-29.35566 5.46228,-21.17236 23.68263,-38.6282 45.04392,-43.15391 26.86312,-5.69136 54.36762,8.07807 65.93679,33.00957 4.37836,9.43533 5.82499,17.50523 5.15823,28.7747 -0.91515,15.46762 -6.90519,28.30699 -18.32569,39.28026 -12.25055,11.77082 -32.30905,18.11627 -48.99632,15.49985 z m 23.46568,-26.57937 c 6.16486,-3.35534 11.93599,-9.50021 15.2702,-16.25909 1.98336,-4.02054 2.32922,-6.26544 2.34431,-15.21635 0.0157,-9.31082 -0.28471,-11.14516 -2.65248,-16.1965 -3.25961,-6.95396 -9.64661,-13.52594 -16.32982,-16.80274 -4.10678,-2.01356 -6.51847,-2.45341 -13.5,-2.46211 -7.36132,-0.009 -9.20788,0.3605 -13.78415,2.75953 -12.05474,6.31949 -18.3399,16.47108 -19.0084,30.70182 -0.3272,6.96515 -0.006,9.54412 1.78056,14.28231 2.81813,7.47538 7.36919,13.40392 13.40996,17.46882 6.55884,4.41351 9.74183,5.23084 19.11442,4.90818 6.63553,-0.22844 8.93053,-0.77555 13.3554,-3.18387 z M 437,280.08792 c -23.56626,-3.32824 -43.18224,-20.76508 -49.01466,-43.56962 -6.25054,-24.43939 3.42154,-50.39387 23.7322,-63.68399 14.8879,-9.74178 29.07906,-12.62907 45.46708,-9.2506 27.38605,5.64578 46.78493,29.41275 46.80774,57.34756 0.004,5.31471 -0.67704,12.00954 -1.57754,15.5 -7.33474,28.43022 -36.30916,47.76722 -65.41482,43.65665 z m 22.6076,-26.28629 c 11.60854,-5.94426 18.67978,-18.14343 18.67978,-32.22602 0,-10.11517 -2.69435,-17.51186 -8.88852,-24.40127 -8.97475,-9.98208 -22.76404,-13.56814 -34.89886,-9.07584 -8.58863,3.17951 -17.17508,12.06743 -20.26559,20.97711 -6.61602,19.07347 2.44426,39.61663 20.52819,46.54538 6.02903,2.30999 18.57496,1.39127 24.845,-1.81936 z m 270.73909,25.17922 c -22.03926,-3.68207 -41.25394,-21.47564 -46.82878,-43.36534 -1.95503,-7.67645 -1.9429,-21.48806 0.0255,-29.04528 4.15421,-15.94912 16.18584,-30.90002 30.45658,-37.84638 27.54927,-13.40974 55.86202,-2.69521 70.42661,26.6519 2.51536,5.06837 4.57339,9.67884 4.57339,10.2455 0,0.93742 -11.97765,6.19461 -60,26.33497 -9.29903,3.89997 -16.62797,7.54997 -16.79323,8.36347 -0.43419,2.13724 8.44298,11.53629 13.18066,13.95555 6.29017,3.21201 15.81624,3.54079 24.67031,0.85145 6.22319,-1.89024 8.09375,-3.04257 13.15538,-8.1042 l 5.90063,-5.90063 9.4805,6.33979 9.4805,6.3398 -3.9991,5.05924 c -4.5297,5.7305 -14.31566,13.08862 -21.64231,16.27298 -5.42685,2.35865 -17.95023,4.91863 -23.43334,4.79015 -1.925,-0.0451 -5.81899,-0.46945 -8.65331,-0.94297 z M 734,208.58059 c 12.925,-5.37922 23.90439,-10.14533 24.39865,-10.59134 1.55618,-1.40429 -2.19414,-5.75583 -7.66431,-8.89297 -4.31502,-2.47467 -6.36051,-3.00355 -11.64645,-3.01129 -17.70125,-0.0259 -29.7075,10.39435 -31.72161,27.53125 -0.62949,5.35595 -0.54055,5.73702 1.22753,5.25954 1.0484,-0.28313 12.48119,-4.91596 25.40619,-10.29519 z m -89.30491,67.85677 C 644.31279,276.05507 644,237.11728 644,189.90894 v -85.83333 h 13.50555 13.50556 l -0.25556,86.25 -0.25555,86.25 -12.55491,0.27842 c -6.90521,0.15313 -12.86771,-0.0344 -13.25,-0.41667 z"
       style="fill:#6790dc" />
    <path
       inkscape:connector-curvature="0"
       id="path32"
       d="m 557.26266,330.63099 c -7.62755,-1.74213 -16.79764,-6.51368 -22.98489,-11.95991 -4.6464,-4.08992 -14.638,-18.20359 -13.82187,-19.52412 0.23929,-0.38717 5.02951,-2.68889 10.64494,-5.11492 9.70824,-4.19424 10.26365,-4.31821 11.30452,-2.52315 3,5.17376 9.71529,12.36488 14.04836,15.04381 3.96098,2.44889 6.17954,3.06652 12.08652,3.36481 21.40852,1.08108 34.14744,-11.44602 34.75842,-34.18046 0.11074,-4.1206 -0.0674,-7.76131 -0.39574,-8.09047 -0.3284,-0.32915 -3.48421,1.33756 -7.01291,3.70382 -3.52871,2.36626 -9.11002,5.1521 -12.40292,6.19078 -17.11923,5.39987 -38.37164,-0.9825 -51.88957,-15.5831 -11.00599,-11.88749 -16.94344,-26.03863 -16.94344,-40.38247 0,-14.14754 6.12223,-28.91169 16.65996,-40.17656 19.01855,-20.33088 44.25273,-24.13705 64.84695,-9.78112 l 6.33901,4.41883 0.30479,-4.48057 0.30479,-4.48058 H 615.05479 627 l -0.0349,56.25 c -0.0371,59.74913 -0.39632,65.33573 -4.93424,76.72912 -5.79227,14.54268 -18.03216,25.72024 -32.53087,29.70745 -7.60893,2.09249 -24.84583,2.55704 -32.23734,0.86881 z m 28.22844,-75.95063 c 6.36211,-2.94817 12.82537,-9.52786 16.29861,-16.59221 2.45681,-4.99699 2.70753,-6.5413 2.68073,-16.51254 -0.0354,-13.17893 -1.68018,-17.66943 -9.50058,-25.93835 -9.95507,-10.52602 -22.68344,-12.931 -35.37352,-6.68369 -12.04461,5.92954 -18.83045,17.6854 -18.83045,32.62204 0,26.11133 23.03043,43.15802 44.72521,33.10475 z m -277.08899,25.45006 c -23.4041,-3.66956 -42.8341,-21.16841 -48.91663,-44.05481 -1.92858,-7.25654 -1.87958,-21.68375 0.0997,-29.35566 5.46228,-21.17236 23.68263,-38.6282 45.04392,-43.15391 26.86312,-5.69136 54.36762,8.07807 65.93679,33.00957 4.37836,9.43533 5.82499,17.50523 5.15823,28.7747 -0.91515,15.46762 -6.90519,28.30699 -18.32569,39.28026 -12.25055,11.77082 -32.30905,18.11627 -48.99632,15.49985 z m 23.46568,-26.57937 c 6.16486,-3.35534 11.93599,-9.50021 15.2702,-16.25909 1.98336,-4.02054 2.32922,-6.26544 2.34431,-15.21635 0.0157,-9.31082 -0.28471,-11.14516 -2.65248,-16.1965 -3.25961,-6.95396 -9.64661,-13.52594 -16.32982,-16.80274 -4.10678,-2.01356 -6.51847,-2.45341 -13.5,-2.46211 -7.36132,-0.009 -9.20788,0.3605 -13.78415,2.75953 -12.05474,6.31949 -18.3399,16.47108 -19.0084,30.70182 -0.3272,6.96515 -0.006,9.54412 1.78056,14.28231 2.81813,7.47538 7.36919,13.40392 13.40996,17.46882 6.55884,4.41351 9.74183,5.23084 19.11442,4.90818 6.63553,-0.22844 8.93053,-0.77555 13.3554,-3.18387 z M 437,280.08792 c -23.56626,-3.32824 -43.18224,-20.76508 -49.01466,-43.56962 -6.25054,-24.43939 3.42154,-50.39387 23.7322,-63.68399 14.8879,-9.74178 29.07906,-12.62907 45.46708,-9.2506 27.38605,5.64578 46.78493,29.41275 46.80774,57.34756 0.004,5.31471 -0.67704,12.00954 -1.57754,15.5 -7.33474,28.43022 -36.30916,47.76722 -65.41482,43.65665 z m 22.6076,-26.28629 c 11.60854,-5.94426 18.67978,-18.14343 18.67978,-32.22602 0,-10.11517 -2.69435,-17.51186 -8.88852,-24.40127 -8.97475,-9.98208 -22.76404,-13.56814 -34.89886,-9.07584 -8.58863,3.17951 -17.17508,12.06743 -20.26559,20.97711 -6.61602,19.07347 2.44426,39.61663 20.52819,46.54538 6.02903,2.30999 18.57496,1.39127 24.845,-1.81936 z M 151.5,279.42118 c -17.12288,-3.61658 -25.98321,-6.97367 -36.69612,-13.90382 -18.622504,-12.04684 -32.52152,-30.61701 -38.903179,-51.97769 -2.703322,-9.04855 -3.700112,-29.78315 -1.91263,-39.78529 6.323538,-35.38436 32.392429,-63.27861 68.012429,-72.7747 12.13758,-3.235812 32.71445,-3.274132 45.4995,-0.0847 10.63361,2.65268 24.54592,9.2631 33.20201,15.7759 l 6.20201,4.66636 -8.13351,8.8692 c -4.47343,4.87803 -8.49794,8.86917 -8.94336,8.86917 -0.44541,0 -2.91174,-1.60441 -5.48071,-3.56536 -18.81515,-14.36192 -46.88906,-16.73658 -68.97619,-5.83441 -16.85992,8.32203 -30.3153,24.99404 -35.02639,43.39977 -2.1731,8.49008 -2.17009,23.52927 0.006,32 5.10384,19.86373 18.50229,35.92084 37.14973,44.52141 9.88937,4.56117 16.52157,5.95384 28,5.87961 12.08805,-0.0782 20.08217,-2.05829 30.81552,-7.6329 15.86849,-8.24166 27.52751,-25.10975 27.66003,-40.01812 l 0.0249,-2.75 H 194.5 165 v -12 -12 h 42 42 l -0.0216,13.75 c -0.0273,17.35312 -2.26086,28.15581 -8.41664,40.70758 -7.02437,14.32284 -16.19164,24.07462 -30.77754,32.73995 -7.94595,4.7206 -20.52981,9.26026 -29.78418,10.74472 -6.28704,1.00848 -24.4199,1.26509 -28.5,0.40332 z m 578.84669,-0.44033 c -22.03926,-3.68207 -41.25394,-21.47564 -46.82878,-43.36534 -1.95503,-7.67645 -1.9429,-21.48806 0.0255,-29.04528 4.15421,-15.94912 16.18584,-30.90002 30.45658,-37.84638 27.54927,-13.40974 55.86202,-2.69521 70.42661,26.6519 2.51536,5.06837 4.57339,9.67884 4.57339,10.2455 0,0.93742 -11.97765,6.19461 -60,26.33497 -9.29903,3.89997 -16.62797,7.54997 -16.79323,8.36347 -0.43419,2.13724 8.44298,11.53629 13.18066,13.95555 6.29017,3.21201 15.81624,3.54079 24.67031,0.85145 6.22485,-1.89074 8.09331,-3.04213 13.16176,-8.11058 l 5.90702,-5.90702 8.93674,6.00905 c 4.91521,3.30498 8.93674,6.5136 8.93674,7.13027 0,2.1825 -7.20665,9.87361 -13.37818,14.27752 -8.04802,5.74295 -14.30101,8.42075 -23.62182,10.1159 -8.39735,1.5272 -12.15354,1.59199 -19.65331,0.33902 z M 734,208.58059 c 12.925,-5.37922 23.90439,-10.14533 24.39865,-10.59134 1.55618,-1.40429 -2.19414,-5.75583 -7.66431,-8.89297 -4.31502,-2.47467 -6.36051,-3.00355 -11.64645,-3.01129 -17.70125,-0.0259 -29.7075,10.39435 -31.72161,27.53125 -0.62949,5.35595 -0.54055,5.73702 1.22753,5.25954 1.0484,-0.28313 12.48119,-4.91596 25.40619,-10.29519 z m -89,-18.50498 v -86 h 12.5 12.5 v 86 86 H 657.5 645 Z"
       style="fill:#f2ac07" />
    <path
       inkscape:connector-curvature="0"
       id="path34"
       d="m 557.26266,330.63099 c -7.62755,-1.74213 -16.79764,-6.51368 -22.98489,-11.95991 -4.6464,-4.08992 -14.638,-18.20359 -13.82187,-19.52412 0.23929,-0.38717 5.02951,-2.68889 10.64494,-5.11492 9.70824,-4.19424 10.26365,-4.31821 11.30452,-2.52315 3,5.17376 9.71529,12.36488 14.04836,15.04381 3.96098,2.44889 6.17954,3.06652 12.08652,3.36481 21.40852,1.08108 34.14744,-11.44602 34.75842,-34.18046 0.11074,-4.1206 -0.0674,-7.76131 -0.39574,-8.09047 -0.3284,-0.32915 -3.48421,1.33756 -7.01291,3.70382 -3.52871,2.36626 -9.11002,5.1521 -12.40292,6.19078 -17.11923,5.39987 -38.37164,-0.9825 -51.88957,-15.5831 -11.00599,-11.88749 -16.94344,-26.03863 -16.94344,-40.38247 0,-14.14754 6.12223,-28.91169 16.65996,-40.17656 19.01855,-20.33088 44.25273,-24.13705 64.84695,-9.78112 l 6.33901,4.41883 0.30479,-4.48057 0.30479,-4.48058 H 615.05479 627 l -0.0349,56.25 c -0.0371,59.74913 -0.39632,65.33573 -4.93424,76.72912 -5.79227,14.54268 -18.03216,25.72024 -32.53087,29.70745 -7.60893,2.09249 -24.84583,2.55704 -32.23734,0.86881 z m 28.22844,-75.95063 c 6.36211,-2.94817 12.82537,-9.52786 16.29861,-16.59221 2.45681,-4.99699 2.70753,-6.5413 2.68073,-16.51254 -0.0354,-13.17893 -1.68018,-17.66943 -9.50058,-25.93835 -9.95507,-10.52602 -22.68344,-12.931 -35.37352,-6.68369 -12.04461,5.92954 -18.83045,17.6854 -18.83045,32.62204 0,26.11133 23.03043,43.15802 44.72521,33.10475 z m -276.31795,25.32016 c -8.11723,-1.05272 -12.10859,-2.35583 -20.41135,-6.66395 -12.10123,-6.27905 -23.10306,-19.1707 -27.76834,-32.53818 -2.73732,-7.84328 -3.70404,-22.37911 -2.05824,-30.94808 1.60253,-8.34362 7.8619,-21.05041 13.52898,-27.46438 13.34396,-15.10261 36.38122,-22.95319 55.5358,-18.92535 22.28577,4.68627 39.48077,20.42857 45.67568,41.8168 11.75393,40.58102 -22.42848,80.17973 -64.50253,74.72314 z M 330.5,254.22557 c 18.53618,-8.79994 25.43314,-31.99483 15.08544,-50.73325 -13.28553,-24.05849 -46.65844,-22.6949 -58.41526,2.38679 -2.36451,5.04438 -2.66938,6.89851 -2.66316,16.1965 0.006,9.50435 0.26694,10.99433 2.74814,15.71308 6.89573,13.11435 16.39345,19.15695 30.24484,19.24224 5.68155,0.035 8.1301,-0.49341 13,-2.80536 z m -179,25.19561 c -17.12288,-3.61658 -25.98321,-6.97367 -36.69612,-13.90382 -18.622504,-12.04684 -32.52152,-30.61701 -38.903179,-51.97769 -2.703322,-9.04855 -3.700112,-29.78315 -1.91263,-39.78529 6.323538,-35.38436 32.392429,-63.27861 68.012429,-72.7747 12.13758,-3.235812 32.71445,-3.274132 45.4995,-0.0847 10.63361,2.65268 24.54592,9.2631 33.20201,15.7759 l 6.20201,4.66636 -8.13351,8.8692 c -4.47343,4.87803 -8.49794,8.86917 -8.94336,8.86917 -0.44541,0 -2.91174,-1.60441 -5.48071,-3.56536 -18.81515,-14.36192 -46.88906,-16.73658 -68.97619,-5.83441 -16.85992,8.32203 -30.3153,24.99404 -35.02639,43.39977 -2.1731,8.49008 -2.17009,23.52927 0.006,32 5.10384,19.86373 18.50229,35.92084 37.14973,44.52141 9.88937,4.56117 16.52157,5.95384 28,5.87961 12.08805,-0.0782 20.08217,-2.05829 30.81552,-7.6329 15.86849,-8.24166 27.52751,-25.10975 27.66003,-40.01812 l 0.0249,-2.75 H 194.5 165 v -12 -12 h 42 42 l -0.0216,13.75 c -0.0273,17.35312 -2.26086,28.15581 -8.41664,40.70758 -7.02437,14.32284 -16.19164,24.07462 -30.77754,32.73995 -7.94595,4.7206 -20.52981,9.26026 -29.78418,10.74472 -6.28704,1.00848 -24.4199,1.26509 -28.5,0.40332 z m 579.72626,-0.46617 C 703.00563,274.79309 682,250.09502 682,221.07561 c 0,-16.20003 5.78523,-29.90409 17.58598,-41.65768 24.62054,-24.52214 61.501,-20.87115 80.27677,7.94703 3.73511,5.73286 9.68695,18.5259 8.94115,19.21834 -0.25261,0.23454 -40.30922,17.12284 -70.02204,29.52206 -7.21365,3.01027 -7.6454,3.35968 -6.6053,5.34552 2.89095,5.51968 7.34661,9.75696 13.38646,12.73037 6.11383,3.00983 6.89405,3.14776 14.95929,2.64459 10.56696,-0.65925 17.26342,-3.67559 23.89164,-10.76169 l 4.66487,-4.98713 8.96059,6.02509 c 4.92833,3.3138 8.96059,6.51353 8.96059,7.11051 0,2.32226 -8.45491,11.01182 -14.85313,15.26535 -11.96582,7.95486 -27.24617,11.49373 -40.92061,9.47704 z m 5.23237,-71.34075 c 12.62725,-5.29242 23.07731,-9.74126 23.22236,-9.88631 0.14505,-0.14505 -1.06063,-1.8704 -2.67929,-3.83411 -10.08463,-12.2344 -34.40409,-10.02524 -44.06907,4.0032 -3.13125,4.54492 -5.86063,12.8152 -5.89998,17.87754 l -0.0326,4.19898 3.25,-1.36836 c 1.7875,-0.75259 13.58138,-5.69851 26.20863,-10.99094 z M 645,190.07561 v -86 h 12.5 12.5 v 86 86 H 657.5 645 Z"
       style="fill:#2f72ee" />
    <path
       inkscape:connector-curvature="0"
       id="path36"
       d="m 566.75,331.3434 c 2.3375,-0.21053 6.1625,-0.21053 8.5,0 2.3375,0.21054 0.425,0.3828 -4.25,0.3828 -4.675,0 -6.5875,-0.17226 -4.25,-0.3828 z M 555,330.07561 c -1.97958,-0.63397 -2.08367,-0.80064 -0.5,-0.80064 1.1,0 3.125,0.36029 4.5,0.80064 1.97958,0.63397 2.08367,0.80064 0.5,0.80064 -1.1,0 -3.125,-0.36029 -4.5,-0.80064 z m 29,0 c 1.375,-0.44035 3.4,-0.80064 4.5,-0.80064 1.58367,0 1.47958,0.16667 -0.5,0.80064 -1.375,0.44035 -3.4,0.80064 -4.5,0.80064 -1.58367,0 -1.47958,-0.16667 0.5,-0.80064 z m -35,-2 c -0.825,-0.53316 -1.05,-0.96937 -0.5,-0.96937 0.55,0 1.675,0.43621 2.5,0.96937 0.825,0.53316 1.05,0.96937 0.5,0.96937 -0.55,0 -1.675,-0.43621 -2.5,-0.96937 z m 43.5,0 c 2.74909,-1.18132 4.32797,-1.18132 2.5,0 -0.825,0.53316 -2.175,0.94464 -3,0.9144 -0.98906,-0.0362 -0.81874,-0.34772 0.5,-0.9144 z m -57.8389,-9.06711 c -2.54127,-2.23692 -5.57992,-5.49942 -6.75255,-7.25 -1.72411,-2.57387 -1.47337,-2.43297 1.31039,0.73642 1.89335,2.15561 5.20614,5.41142 7.36175,7.23512 2.15562,1.8237 3.64517,3.32251 3.3101,3.33069 -0.33507,0.008 -2.68843,-1.81532 -5.22969,-4.05223 z M 604,322.7801 c 0,-0.25496 2.11653,-2.1979 4.7034,-4.31765 2.58688,-2.11975 4.38063,-3.33183 3.98613,-2.6935 C 611.84892,317.12908 604,323.46199 604,322.7801 Z m 9,-9.08205 c 0,-0.20765 0.7875,-0.99515 1.75,-1.75 1.58606,-1.24387 1.62143,-1.2085 0.37756,0.37756 C 613.82119,313.99136 613,314.52109 613,313.69805 Z m -46.2723,-3.34417 c 1.77523,-0.22091 4.92523,-0.22454 7,-0.008 2.07476,0.21648 0.6223,0.39722 -3.2277,0.40166 -3.85,0.004 -5.54754,-0.17268 -3.7723,-0.39359 z m 12.0848,-0.96138 c 0.72187,-0.28887 1.58438,-0.25335 1.91667,0.0789 0.33229,0.33229 -0.25834,0.56864 -1.3125,0.52522 -1.16495,-0.048 -1.4019,-0.28494 -0.60417,-0.60416 z M 583,308.35946 c 0.825,-0.30704 2.7375,-1.18307 4.25,-1.94674 1.5125,-0.76366 2.75,-1.16347 2.75,-0.88847 0,0.78495 -5.75477,3.56022 -7.20034,3.47241 -0.87303,-0.053 -0.80727,-0.2622 0.20034,-0.6372 z m -59.22938,-2.53385 c -3.99396,-6.1576 -4.02813,-6.56548 -0.69448,-8.28937 1.71035,-0.88446 3.30733,-1.41049 3.54886,-1.16897 0.24152,0.24153 -0.93396,1.00789 -2.61219,1.70303 l -3.05131,1.2639 2.5614,4.3707 c 2.6457,4.51454 2.83136,6.10398 0.24772,2.12071 z m 95.30967,-0.75 C 620.5381,302.01458 621,301.44727 621,302.71781 c 0,0.53655 -0.69982,1.84905 -1.55517,2.91667 -1.46637,1.83031 -1.48719,1.7984 -0.36454,-0.55887 z m -69.68629,-3.25 c -3.06538,-3.32268 -6.65216,-8.0555 -4.73657,-6.25 2.13621,2.01345 8.5629,9.5 8.1551,9.5 -0.23111,0 -1.76944,-1.4625 -3.41853,-3.25 z m 44.60323,-0.2521 c 1.92347,-2.19884 3.89105,-4.4479 4.3724,-4.9979 0.48135,-0.55 0.40883,-0.1 -0.16117,1 -0.56999,1.1 -2.53757,3.34906 -4.3724,4.9979 L 590.5,305.57142 Z m 27.0334,-0.9979 c 0,-0.55 0.43621,-1.675 0.96937,-2.5 0.53316,-0.825 0.96937,-1.05 0.96937,-0.5 0,0.55 -0.43621,1.675 -0.96937,2.5 -0.53316,0.825 -0.96937,1.05 -0.96937,0.5 z m 2.10994,-5.5 c 0,-0.825 0.38674,-2.4 0.85943,-3.5 0.54172,-1.26064 0.85943,-1.44548 0.85943,-0.5 0,0.825 -0.38674,2.4 -0.85943,3.5 -0.54172,1.26064 -0.85943,1.44548 -0.85943,0.5 z M 532,293.57561 c 1.375,-0.78602 2.95,-1.42913 3.5,-1.42913 0.55,0 -0.125,0.64311 -1.5,1.42913 -1.375,0.78602 -2.95,1.42913 -3.5,1.42913 -0.55,0 0.125,-0.64311 1.5,-1.42913 z m 10.29969,-0.85337 c -0.43983,-0.74435 -1.47469,-1.60882 -2.29969,-1.92105 -1.21105,-0.45833 -1.16967,-0.58289 0.21482,-0.64663 0.94315,-0.0434 2.19648,0.82105 2.78518,1.92105 1.18705,2.21802 0.56668,2.79084 -0.70031,0.64663 z m 59.77926,-6.22996 c 0.048,-1.16495 0.28494,-1.4019 0.60416,-0.60417 0.28887,0.72187 0.25335,1.58438 -0.0789,1.91667 -0.33229,0.33229 -0.56864,-0.25834 -0.52522,-1.3125 z m 23.116,-0.91667 c 0.0204,-1.65 0.2445,-2.20394 0.49804,-1.23097 0.25354,0.97297 0.23687,2.32297 -0.0371,3 -0.27393,0.67703 -0.48137,-0.11903 -0.46099,-1.76903 z m -21.94277,-6 c 0.0111,-2.2 0.21589,-2.98225 0.45508,-1.73834 0.23919,1.24391 0.23011,3.04391 -0.0202,4 -0.25029,0.95609 -0.446,-0.0617 -0.4349,-2.26166 z m -294.07903,0.42491 c -8.11723,-1.05272 -12.10859,-2.35583 -20.41135,-6.66395 -12.10123,-6.27905 -23.10306,-19.1707 -27.76834,-32.53818 -2.73732,-7.84328 -3.70404,-22.37911 -2.05824,-30.94808 1.60253,-8.34362 7.8619,-21.05041 13.52898,-27.46438 13.34396,-15.10261 36.38122,-22.95319 55.5358,-18.92535 22.28577,4.68627 39.48077,20.42857 45.67568,41.8168 11.75393,40.58102 -22.42848,80.17973 -64.50253,74.72314 z M 330.5,254.22557 c 18.53618,-8.79994 25.43314,-31.99483 15.08544,-50.73325 -13.28553,-24.05849 -46.65844,-22.6949 -58.41526,2.38679 -2.36451,5.04438 -2.66938,6.89851 -2.66316,16.1965 0.006,9.50435 0.26694,10.99433 2.74814,15.71308 6.89573,13.11435 16.39345,19.15695 30.24484,19.24224 5.68155,0.035 8.1301,-0.49341 13,-2.80536 z m 295.49984,-29.64996 c -0.27491,-31.35 -0.38734,-57.1875 -0.24984,-57.41667 1.0736,-1.78933 1.23555,7.44847 1.00817,57.50833 l -0.25848,56.90834 z M 158.78919,279.3342 c 3.45905,-0.19583 8.85905,-0.19422 12,0.004 3.14094,0.19781 0.31081,0.35803 -6.28919,0.35606 -6.6,-0.002 -9.16987,-0.16382 -5.71081,-0.35965 z m 410.47984,0.0484 c 0.97297,-0.25354 2.32297,-0.23687 3,0.0371 0.67703,0.27393 -0.11903,0.48137 -1.76903,0.46099 -1.65,-0.0204 -2.20394,-0.2445 -1.23097,-0.49804 z m 161.95723,-0.42759 C 703.00563,274.79309 682,250.09502 682,221.07561 c 0,-16.20003 5.78523,-29.90409 17.58598,-41.65768 24.62054,-24.52214 61.501,-20.87115 80.27677,7.94703 3.73511,5.73286 9.68695,18.5259 8.94115,19.21834 -0.25261,0.23454 -40.30922,17.12284 -70.02204,29.52206 -7.21365,3.01027 -7.6454,3.35968 -6.6053,5.34552 2.89095,5.51968 7.34661,9.75696 13.38646,12.73037 6.11383,3.00983 6.89405,3.14776 14.95929,2.64459 10.56696,-0.65925 17.26342,-3.67559 23.89164,-10.76169 l 4.66487,-4.98713 8.96059,6.02509 c 4.92833,3.3138 8.96059,6.51353 8.96059,7.11051 0,2.32226 -8.45491,11.01182 -14.85313,15.26535 -11.96582,7.95486 -27.24617,11.49373 -40.92061,9.47704 z m 5.23237,-71.34075 c 12.62725,-5.29242 23.07731,-9.74126 23.22236,-9.88631 0.14505,-0.14505 -1.06063,-1.8704 -2.67929,-3.83411 -10.08463,-12.2344 -34.40409,-10.02524 -44.06907,4.0032 -3.13125,4.54492 -5.86063,12.8152 -5.89998,17.87754 l -0.0326,4.19898 3.25,-1.36836 c 1.7875,-0.75259 13.58138,-5.69851 26.20863,-10.99094 z M 147.75,278.41333 c 0.6875,-0.27741 1.8125,-0.27741 2.5,0 0.6875,0.27741 0.125,0.50439 -1.25,0.50439 -1.375,0 -1.9375,-0.22698 -1.25,-0.50439 z m 32,0 c 0.6875,-0.27741 1.8125,-0.27741 2.5,0 0.6875,0.27741 0.125,0.50439 -1.25,0.50439 -1.375,0 -1.9375,-0.22698 -1.25,-0.50439 z m 381,0 c 0.6875,-0.27741 1.8125,-0.27741 2.5,0 0.6875,0.27741 0.125,0.50439 -1.25,0.50439 -1.375,0 -1.9375,-0.22698 -1.25,-0.50439 z m 16,0 c 0.6875,-0.27741 1.8125,-0.27741 2.5,0 0.6875,0.27741 0.125,0.50439 -1.25,0.50439 -1.375,0 -1.9375,-0.22698 -1.25,-0.50439 z M 143.8125,277.3925 c 0.72187,-0.28887 1.58437,-0.25335 1.91667,0.0789 0.33229,0.33229 -0.25834,0.56864 -1.3125,0.52522 -1.16495,-0.048 -1.4019,-0.28494 -0.60417,-0.60416 z m 41,0 c 0.72187,-0.28887 1.58437,-0.25335 1.91667,0.0789 0.33229,0.33229 -0.25834,0.56864 -1.3125,0.52522 -1.16495,-0.048 -1.4019,-0.28494 -0.60417,-0.60416 z m 397,0 c 0.72187,-0.28887 1.58438,-0.25335 1.91667,0.0789 0.33229,0.33229 -0.25834,0.56864 -1.3125,0.52522 -1.16495,-0.048 -1.4019,-0.28494 -0.60417,-0.60416 z M 134,275.07561 c -1.82797,-1.18132 -0.24909,-1.18132 2.5,0 1.31874,0.56668 1.48906,0.87815 0.5,0.9144 -0.825,0.0302 -2.175,-0.38124 -3,-0.9144 z m 453.08333,0.62718 C 588.11238,274.78202 594,272.07638 594,272.52425 c 0,0.57598 -5.54382,3.55136 -6.61701,3.55136 -0.39398,0 -0.52882,-0.16777 -0.29966,-0.37282 z M 645,190.07561 v -86 h 12.5 12.5 v 86 86 H 657.5 645 Z m -449,84 c 0.825,-0.53316 1.95,-0.96937 2.5,-0.96937 0.55,0 0.325,0.43621 -0.5,0.96937 -0.825,0.53316 -1.95,0.96937 -2.5,0.96937 -0.55,0 -0.325,-0.43621 0.5,-0.96937 z m 4.08333,-1.37708 c 1.02279,-0.92562 8.91667,-4.6116 8.91667,-4.16357 0,0.56844 -7.54685,4.54065 -8.62683,4.54065 -0.38858,0 -0.519,-0.16969 -0.28984,-0.37708 z m 340.85614,-2.44636 c -5.23274,-3.3185 -14.50426,-13.27821 -17.77027,-19.08929 -3.09708,-5.51053 -2.03144,-5.23429 1.22164,0.31667 3.69489,6.30486 12.14968,15.24248 17.24227,18.22694 3.78161,2.21617 5.1719,3.36912 4.06267,3.36912 -0.16732,0 -2.30766,-1.27055 -4.75631,-2.82344 z M 122.75,270.50364 c -3.87722,-2.10343 -3.43809,-2.82933 0.5,-0.82653 3.76952,1.91707 4.43665,2.41393 3.16667,2.35846 -0.50417,-0.022 -2.15417,-0.71139 -3.66667,-1.53193 z m 480.40789,-1.42803 c 0,-1.375 0.22698,-1.9375 0.50439,-1.25 0.27741,0.6875 0.27741,1.8125 0,2.5 -0.27741,0.6875 -0.50439,0.125 -0.50439,-1.25 z M 598,269.69805 c 0,-0.20765 0.7875,-0.99515 1.75,-1.75 1.58606,-1.24387 1.62143,-1.2085 0.37756,0.37756 C 598.82119,269.99136 598,270.52109 598,269.69805 Z m -489.12756,-8.37244 c -1.24387,-1.58606 -1.2085,-1.62143 0.37756,-0.37756 0.9625,0.75485 1.75,1.54235 1.75,1.75 0,0.82304 -0.82119,0.29331 -2.12756,-1.37244 z M 220,260.57561 c 1.29175,-1.375 2.57363,-2.5 2.84863,-2.5 0.275,0 -0.55688,1.125 -1.84863,2.5 -1.29175,1.375 -2.57363,2.5 -2.84863,2.5 -0.275,0 0.55688,-1.125 1.84863,-2.5 z m -121,-8 c -4.09747,-4.125 -7.224945,-7.5 -6.949945,-7.5 0.275,0 3.852475,3.375 7.949945,7.5 4.09747,4.125 7.22494,7.5 6.94994,7.5 -0.275,0 -3.85247,-3.375 -7.94994,-7.5 z m 127,3 c 1.29175,-1.375 2.57363,-2.5 2.84863,-2.5 0.275,0 -0.55688,1.125 -1.84863,2.5 -1.29175,1.375 -2.57363,2.5 -2.84863,2.5 -0.275,0 0.55688,-1.125 1.84863,-2.5 z m 340.8125,1.81689 c 0.72187,-0.28887 1.58438,-0.25335 1.91667,0.0789 0.33229,0.33229 -0.25834,0.56864 -1.3125,0.52522 -1.16495,-0.048 -1.4019,-0.28494 -0.60417,-0.60416 z m 9.9375,0.0208 c 0.6875,-0.27741 1.8125,-0.27741 2.5,0 0.6875,0.27741 0.125,0.50439 -1.25,0.50439 -1.375,0 -1.9375,-0.22698 -1.25,-0.50439 z m -413,-1 c 0.6875,-0.27741 1.8125,-0.27741 2.5,0 0.6875,0.27741 0.125,0.50439 -1.25,0.50439 -1.375,0 -1.9375,-0.22698 -1.25,-0.50439 z m 395.0648,-1.37256 c -2.02686,-1.07055 -4.02574,-2.51316 -4.44196,-3.20581 -0.59873,-0.99638 -0.44363,-1.00611 0.74276,-0.0466 0.82474,0.66701 3.49862,2.11963 5.94196,3.22804 2.44334,1.10842 3.76744,2.0053 2.94244,1.99307 -0.825,-0.0122 -3.15834,-0.89813 -5.1852,-1.96868 z m -403.54577,0.34185 c 0.97297,-0.25354 2.32297,-0.23687 3,0.0371 0.67703,0.27393 -0.11903,0.48137 -1.76903,0.46099 -1.65,-0.0204 -2.20394,-0.2445 -1.23097,-0.49804 z m 17,0 c 0.97297,-0.25354 2.32297,-0.23687 3,0.0371 0.67703,0.27393 -0.11903,0.48137 -1.76903,0.46099 -1.65,-0.0204 -2.20394,-0.2445 -1.23097,-0.49804 z m 411.8143,0.32844 c 0.22917,-0.2005 1.54167,-0.90032 2.91667,-1.55516 2.35727,-1.12265 2.38918,-1.10183 0.55887,0.36454 -1.593,1.27626 -4.84786,2.39128 -3.47554,1.19062 z M 149.8125,254.3925 c 0.72187,-0.28887 1.58437,-0.25335 1.91667,0.0789 0.33229,0.33229 -0.25834,0.56864 -1.3125,0.52522 -1.16495,-0.048 -1.4019,-0.28494 -0.60417,-0.60416 z M 180,254.07561 c 3.41917,-1.09501 6.04822,-1.09501 3.5,0 -1.1,0.47269 -2.9,0.8462 -4,0.83003 -1.60779,-0.0236 -1.50973,-0.1864 0.5,-0.83003 z m -34.1875,-0.68311 c 0.72187,-0.28887 1.58437,-0.25335 1.91667,0.0789 0.33229,0.33229 -0.25834,0.56864 -1.3125,0.52522 -1.16495,-0.048 -1.4019,-0.28494 -0.60417,-0.60416 z M 141,252.07561 c -0.825,-0.53316 -1.05,-0.96937 -0.5,-0.96937 0.55,0 1.675,0.43621 2.5,0.96937 0.825,0.53316 1.05,0.96937 0.5,0.96937 -0.55,0 -1.675,-0.43621 -2.5,-0.96937 z m 450.5,-1 c 0.99549,-1.1 2.03498,-2 2.30998,-2 0.275,0 -0.31449,0.9 -1.30998,2 -0.99549,1.1 -2.03498,2 -2.30998,2 -0.275,0 0.31449,-0.9 1.30998,-2 z m -359.29231,-3.02545 c 1.81077,-2.489 4.09942,-5.639 5.08588,-7 1.72475,-2.37961 1.72475,-2.34609 0,0.87378 -0.98646,1.84159 -3.27511,4.99159 -5.08588,7 l -3.29231,3.65167 z M 134.75,249.50364 c -3.87722,-2.10343 -3.43809,-2.82933 0.5,-0.82653 3.76952,1.91707 4.43665,2.41393 3.16667,2.35846 -0.50417,-0.022 -2.15417,-0.71139 -3.66667,-1.53193 z m 56.33333,1.19489 c 1.02279,-0.92562 8.91667,-4.6116 8.91667,-4.16357 0,0.56844 -7.54685,4.54065 -8.62683,4.54065 -0.38858,0 -0.519,-0.16969 -0.28984,-0.37708 z m 359.32166,-1.87292 -1.90499,-2.25 2.25,1.90499 c 1.2375,1.04774 2.25,2.06024 2.25,2.25 0,0.80025 -0.80479,0.20945 -2.59501,-1.90499 z m 46.09501,-2.75 c 0.99549,-1.1 2.03498,-2 2.30998,-2 0.275,0 -0.31449,0.9 -1.30998,2 -0.99549,1.1 -2.03498,2 -2.30998,2 -0.275,0 0.31449,-0.9 1.30998,-2 z M 126.15004,244.06934 C 123.86752,242.41589 122,240.81799 122,240.51845 c 0,-0.46984 5.6339,3.36521 8.45,5.75199 2.36855,2.00746 -0.55881,0.50898 -4.29996,-2.2011 z m 420.7224,0.25627 c -1.24387,-1.58606 -1.2085,-1.62143 0.37756,-0.37756 1.66575,1.30637 2.19548,2.12756 1.37244,2.12756 -0.20765,0 -0.99515,-0.7875 -1.75,-1.75 z m -456.999995,-2 c -1.243871,-1.58606 -1.208501,-1.62143 0.377555,-0.37756 0.9625,0.75485 1.75,1.54235 1.75,1.75 0,0.82304 -0.821186,0.29331 -2.127555,-1.37244 z M 205.5,242.07561 c 0.99549,-1.1 2.03498,-2 2.30998,-2 0.275,0 -0.31449,0.9 -1.30998,2 -0.99549,1.1 -2.03498,2 -2.30998,2 -0.275,0 0.31449,-0.9 1.30998,-2 z m 312.61111,-1.11111 c -0.61607,-1.76726 -0.94513,-3.38821 -0.73124,-3.60209 0.21389,-0.21389 0.89295,1.05705 1.50902,2.82431 0.61607,1.76726 0.94513,3.38821 0.73124,3.60209 -0.21389,0.21389 -0.89295,-1.05705 -1.50902,-2.82431 z m -401.16494,-4.63889 -3.44617,-3.75 3.75,3.44617 c 2.0625,1.89539 3.75,3.58289 3.75,3.75 0,0.76362 -0.84622,0.0443 -4.05383,-3.44617 z M 209,239.69805 c 0,-0.20765 0.7875,-0.99515 1.75,-1.75 1.58606,-1.24387 1.62143,-1.2085 0.37756,0.37756 C 209.82119,239.99136 209,240.52109 209,239.69805 Z m 334.45888,-0.68897 c -0.36253,-0.58659 -0.44468,-1.281 -0.18255,-1.54313 0.26212,-0.26213 0.74306,0.21781 1.06875,1.06653 0.67618,1.76211 0.0998,2.07206 -0.8862,0.4766 z m 58.57175,-1.43347 c 0,-0.55 0.43621,-1.675 0.96937,-2.5 0.53316,-0.825 0.96937,-1.05 0.96937,-0.5 0,0.55 -0.43621,1.675 -0.96937,2.5 -0.53316,0.825 -0.96937,1.05 -0.96937,0.5 z M 85,235.07561 c -0.588702,-1.1 -0.845368,-2 -0.570368,-2 0.275,0 0.981666,0.9 1.570368,2 0.588702,1.1 0.845368,2 0.570368,2 -0.275,0 -0.981666,-0.9 -1.570368,-2 z m 128.5,-1 c 0.99549,-1.1 2.03498,-2 2.30998,-2 0.275,0 -0.31449,0.9 -1.30998,2 -0.99549,1.1 -2.03498,2 -2.30998,2 -0.275,0 0.31449,-0.9 1.30998,-2 z m 302.57895,0.41667 c 0.048,-1.16495 0.28494,-1.4019 0.60416,-0.60417 0.28887,0.72187 0.25335,1.58437 -0.0789,1.91667 -0.33229,0.33229 -0.56864,-0.25834 -0.52522,-1.3125 z m 25.54459,0.0447 c -0.34295,-0.8937 -0.59502,-2.15061 -0.56015,-2.79313 0.0349,-0.64251 0.49453,-0.0904 1.02148,1.22697 0.52695,1.31735 0.77902,2.57426 0.56015,2.79313 -0.21887,0.21887 -0.67854,-0.33327 -1.02148,-1.22697 z m -300.59291,-0.96137 c 0,-0.55 0.43621,-1.675 0.96937,-2.5 0.53316,-0.825 0.96937,-1.05 0.96937,-0.5 0,0.55 -0.43621,1.675 -0.96937,2.5 -0.53316,0.825 -0.96937,1.05 -0.96937,0.5 z m 363.04832,-2.08333 c 0.048,-1.16495 0.28494,-1.4019 0.60416,-0.60417 0.28887,0.72187 0.25335,1.58437 -0.0789,1.91667 -0.33229,0.33229 -0.56864,-0.25834 -0.52522,-1.3125 z m -493.38053,-2.66667 c -2.71323,-3.66903 -4.54299,-6.82903 -3.03995,-5.25 1.85528,1.94908 6.43577,8.5 5.94331,8.5 -0.275,0 -1.58151,-1.4625 -2.90336,-3.25 z m 404.45947,1.25 c 0,-1.375 0.22698,-1.9375 0.50439,-1.25 0.27741,0.6875 0.27741,1.8125 0,2.5 -0.27741,0.6875 -0.50439,0.125 -0.50439,-1.25 z m -298.15789,-1 c 0.5887,-1.1 1.29537,-2 1.57037,-2 0.275,0 0.0183,0.9 -0.57037,2 -0.5887,1.1 -1.29537,2 -1.57037,2 -0.275,0 -0.0183,-0.9 0.57037,-2 z m 26.03063,-0.5 c 0,-0.55 0.43621,-1.675 0.96937,-2.5 0.53316,-0.825 0.96937,-1.05 0.96937,-0.5 0,0.55 -0.43621,1.675 -0.96937,2.5 -0.53316,0.825 -0.96937,1.05 -0.96937,0.5 z m 297.16432,-2 c 0.0204,-1.65 0.2445,-2.20394 0.49804,-1.23097 0.25354,0.97297 0.23687,2.32297 -0.0371,3 -0.27393,0.67703 -0.48137,-0.11903 -0.46099,-1.76903 z m 65.13319,-5 c 0.004,-3.85 0.18518,-5.30246 0.40166,-3.2277 0.21647,2.07477 0.21284,5.22477 -0.008,7 -0.22091,1.77524 -0.39803,0.0777 -0.39359,-3.7723 z m -525.704601,2.96134 c -0.964979,-2.51469 -0.680311,-3.16355 0.498534,-1.13634 0.58369,1.00375 0.850598,2.03566 0.593129,2.29313 -0.257468,0.25747 -0.748717,-0.26309 -1.091663,-1.15679 z m 434.628641,-2.96134 c 0.0111,-2.2 0.21589,-2.98225 0.45508,-1.73834 0.23919,1.24391 0.23011,3.04391 -0.0202,4 -0.25029,0.95609 -0.446,-0.0617 -0.4349,-2.26166 z m -294.22155,2 c 0,-0.55 0.43621,-1.675 0.96937,-2.5 0.53316,-0.825 0.96937,-1.05 0.96937,-0.5 0,0.55 -0.43621,1.675 -0.96937,2.5 -0.53316,0.825 -0.96937,1.05 -0.96937,0.5 z m 25.04832,-1.08333 c 0.048,-1.16495 0.28494,-1.4019 0.60416,-0.60417 0.28887,0.72187 0.25335,1.58437 -0.0789,1.91667 -0.3323,0.33229 -0.56864,-0.25834 -0.52522,-1.3125 z m -139.62007,-1.4832 c -0.36253,-0.58659 -0.44468,-1.281 -0.18255,-1.54313 0.26212,-0.26213 0.74306,0.21781 1.06875,1.06653 0.67618,1.76211 0.0999,2.07206 -0.8862,0.4766 z m -27.835341,-1.47213 c -0.342947,-0.8937 -0.595015,-2.15061 -0.560153,-2.79313 0.03486,-0.64251 0.49453,-0.0904 1.021483,1.22697 0.526953,1.31735 0.779022,2.57426 0.560152,2.79313 -0.218869,0.21887 -0.678536,-0.33327 -1.021482,-1.22697 z m 168.455411,-1.04467 c 0.048,-1.16495 0.28494,-1.4019 0.60416,-0.60417 0.28887,0.72187 0.25335,1.58437 -0.0789,1.91667 -0.3323,0.33229 -0.56864,-0.25834 -0.52522,-1.3125 z m 294.116,-1.91667 c 0.0204,-1.65 0.2445,-2.20394 0.49804,-1.23097 0.25354,0.97297 0.23687,2.32297 -0.0371,3 -0.27393,0.67703 -0.48137,-0.11903 -0.46099,-1.76903 z m -436.73607,0.43347 c -0.36253,-0.58659 -0.44468,-1.281 -0.18255,-1.54313 0.26212,-0.26213 0.74306,0.21781 1.06875,1.06653 0.67618,1.76211 0.0999,2.07206 -0.8862,0.4766 z m 119.62007,-3.5168 c 0.048,-1.16495 0.28494,-1.4019 0.60416,-0.60417 0.28887,0.72187 0.25335,1.58437 -0.0789,1.91667 -0.3323,0.33229 -0.56864,-0.25834 -0.52522,-1.3125 z m 24.07894,-0.41667 c 0,-1.375 0.22698,-1.9375 0.50439,-1.25 0.27741,0.6875 0.27741,1.8125 0,2.5 -0.27741,0.6875 -0.50439,0.125 -0.50439,-1.25 z m 268,0 c 0,-1.375 0.22698,-1.9375 0.50439,-1.25 0.27741,0.6875 0.27741,1.8125 0,2.5 -0.27741,0.6875 -0.50439,0.125 -0.50439,-1.25 z m -413.53435,-0.53866 c -0.34295,-0.8937 -0.59502,-2.15061 -0.56015,-2.79313 0.0349,-0.64251 0.49453,-0.0904 1.02148,1.22697 0.52695,1.31735 0.77902,2.57426 0.56015,2.79313 -0.21887,0.21887 -0.67854,-0.33327 -1.02148,-1.22697 z m 502.45541,-1.04467 c 0.048,-1.16495 0.28494,-1.4019 0.60416,-0.60417 0.28887,0.72187 0.25335,1.58437 -0.0789,1.91667 -0.33229,0.33229 -0.56864,-0.25834 -0.52522,-1.3125 z m -529.000003,-1 c 0.04798,-1.16495 0.284941,-1.4019 0.604167,-0.60417 0.288871,0.72187 0.253344,1.58437 -0.07895,1.91667 -0.332292,0.33229 -0.568641,-0.25834 -0.52522,-1.3125 z m 466.006653,0.58333 c -0.0302,-0.825 0.38124,-2.175 0.9144,-3 1.18132,-1.82797 1.18132,-0.24909 0,2.5 -0.56668,1.31874 -0.87815,1.48906 -0.9144,0.5 z m -316.89065,-2.5 c 0.0204,-1.65 0.2445,-2.20394 0.49804,-1.23097 0.25354,0.97297 0.23687,2.32297 -0.0371,3 -0.27393,0.67703 -0.48137,-0.11903 -0.46099,-1.76903 z m 24.05723,-2 c 0.0111,-2.2 0.21589,-2.98225 0.45508,-1.73834 0.23919,1.24391 0.23011,3.04391 -0.0202,4 -0.25029,0.95609 -0.446,-0.0617 -0.4349,-2.26166 z m 354.37136,0.96134 c -0.96498,-2.51469 -0.68031,-3.16355 0.49853,-1.13634 0.58369,1.00375 0.8506,2.03566 0.59313,2.29313 -0.25747,0.25747 -0.74872,-0.26309 -1.09166,-1.15679 z M 74.194949,205.57561 c 0.02038,-1.65 0.244498,-2.20394 0.498042,-1.23097 0.253543,0.97297 0.236869,2.32297 -0.03705,3 -0.273927,0.67703 -0.481372,-0.11903 -0.460992,-1.76903 z m 24.962946,-2.5 c 0,-1.375 0.226973,-1.9375 0.504386,-1.25 0.277412,0.6875 0.277412,1.8125 0,2.5 -0.277413,0.6875 -0.504386,0.125 -0.504386,-1.25 z m 65.842105,-10 v -12 h 42 42 l -0.11831,3.75 c -0.11462,3.6327 -0.13839,3.65616 -0.75983,0.75 l -0.6415,-3 H 206.99018 166.5 l -0.28336,10.70355 -0.28336,10.70355 6.78336,0.35059 6.78336,0.35059 -7.25,0.19586 -7.25,0.19586 z m -91.767997,6 c 0,-1.925 0.205795,-2.7125 0.457323,-1.75 0.251527,0.9625 0.251527,2.5375 0,3.5 -0.251528,0.9625 -0.457323,0.175 -0.457323,-1.75 z M 546,199.69805 c 0,-0.20765 0.7875,-0.99515 1.75,-1.75 1.58606,-1.24387 1.62143,-1.2085 0.37756,0.37756 C 546.82119,199.99136 546,200.52109 546,199.69805 Z M 98.232003,196.07561 c 0,-1.925 0.205795,-2.7125 0.457323,-1.75 0.251527,0.9625 0.251527,2.5375 0,3.5 -0.251528,0.9625 -0.457323,0.175 -0.457323,-1.75 z M 594,194.57561 c -2.42903,-2.475 -4.19142,-4.5 -3.91642,-4.5 0.275,0 2.48739,2.025 4.91642,4.5 2.42903,2.475 4.19142,4.5 3.91642,4.5 -0.275,0 -2.48739,-2.025 -4.91642,-4.5 z m -43.5,-0.5 c 0.99549,-1.1 2.03498,-2 2.30998,-2 0.275,0 -0.31449,0.9 -1.30998,2 -0.99549,1.1 -2.03498,2 -2.30998,2 -0.275,0 0.31449,-0.9 1.30998,-2 z m 7.94113,-5.44483 c 1.06762,-0.85535 2.38012,-1.55517 2.91667,-1.55517 1.27054,0 0.70323,0.4619 -2.3578,1.91971 -2.35727,1.12265 -2.38918,1.10183 -0.55887,-0.36454 z M 586,188.57561 c -1.375,-0.78602 -2.02351,-1.44508 -1.44113,-1.46456 0.58238,-0.0195 1.93238,0.62525 3,1.43276 2.46898,1.86744 1.68038,1.88353 -1.55887,0.0318 z m -22,-2.48608 c 0.825,-0.54081 2.5875,-0.99019 3.91667,-0.99861 3.20962,-0.0203 2.39612,0.54826 -1.91667,1.33965 -2.46242,0.45185 -3.05532,0.35075 -2,-0.34104 z m -31.5,-6.01392 c 3.26557,-3.3 6.16239,-6 6.43739,-6 0.275,0 -2.17182,2.7 -5.43739,6 -3.26557,3.3 -6.16239,6 -6.43739,6 -0.275,0 2.17182,-2.7 5.43739,-6 z m 44.25,5.33772 c 0.6875,-0.27741 1.8125,-0.27741 2.5,0 0.6875,0.27741 0.125,0.50439 -1.25,0.50439 -1.375,0 -1.9375,-0.22698 -1.25,-0.50439 z M 98.232003,182.07561 c 0,-1.925 0.205795,-2.7125 0.457323,-1.75 0.251527,0.9625 0.251527,2.5375 0,3.5 -0.251528,0.9625 -0.457323,0.175 -0.457323,-1.75 z m -24.97982,-2.5 c 0.0111,-2.2 0.215885,-2.98225 0.455078,-1.73834 0.239193,1.24391 0.230112,3.04391 -0.02018,4 -0.250293,0.95609 -0.445997,-0.0617 -0.434898,-2.26166 z m 25.905712,-4.5 c 0,-1.375 0.226973,-1.9375 0.504386,-1.25 0.277412,0.6875 0.277412,1.8125 0,2.5 -0.277413,0.6875 -0.504386,0.125 -0.504386,-1.25 z m -25,-2 c 0,-1.375 0.226973,-1.9375 0.504386,-1.25 0.277412,0.6875 0.277412,1.8125 0,2.5 -0.277413,0.6875 -0.504386,0.125 -0.504386,-1.25 z m 523.714545,0.25 c -1.24387,-1.58606 -1.2085,-1.62143 0.37756,-0.37756 1.66575,1.30637 2.19548,2.12756 1.37244,2.12756 -0.20765,0 -0.99515,-0.7875 -1.75,-1.75 z m 5.12756,-3.25 c 0,-1.65 0.37206,-3 0.82681,-3 0.45474,0 0.62867,1.35 0.3865,3 -0.24217,1.65 -0.61423,3 -0.82681,3 -0.21257,0 -0.3865,-1.35 -0.3865,-3 z m -12.5,-1.04222 c -2.75,-1.6178 -4.58954,-2.94513 -4.08786,-2.94962 1.10366,-0.01 9.58786,4.8871 9.58786,5.53399 0,0.65242 0.0101,0.65716 -5.5,-2.58437 z M 75.078947,167.49228 c 0.04798,-1.16495 0.284941,-1.4019 0.604167,-0.60417 0.288871,0.72187 0.253344,1.58437 -0.07895,1.91667 -0.332292,0.33229 -0.568641,-0.25834 -0.52522,-1.3125 z m 473.654383,0.45924 c 0.67834,-0.68342 1.48524,-0.99067 1.79313,-0.68278 0.30789,0.30789 -0.24711,0.86705 -1.23333,1.24258 -1.4252,0.54268 -1.54006,0.42782 -0.5598,-0.5598 z M 553,166.07561 c 0.825,-0.53316 1.95,-0.96937 2.5,-0.96937 0.55,0 0.325,0.43621 -0.5,0.96937 -0.825,0.53316 -1.95,0.96937 -2.5,0.96937 -0.55,0 -0.325,-0.43621 0.5,-0.96937 z m 4.8125,-1.68311 c 0.72187,-0.28887 1.58438,-0.25335 1.91667,0.0789 0.33229,0.33229 -0.25834,0.56864 -1.3125,0.52522 -1.16495,-0.048 -1.4019,-0.28494 -0.60417,-0.60416 z M 576.5,164.07561 c -2.72215,-0.69267 -2.76846,-0.76782 -0.5,-0.8114 1.375,-0.0264 3.4,0.33871 4.5,0.8114 2.46577,1.05958 0.16408,1.05958 -4,0 z m -14.75,-0.66228 c 0.6875,-0.27741 1.8125,-0.27741 2.5,0 0.6875,0.27741 0.125,0.50439 -1.25,0.50439 -1.375,0 -1.9375,-0.22698 -1.25,-0.50439 z M 107,155.07561 c 0.5887,-1.1 1.29537,-2 1.57037,-2 0.275,0 0.0183,0.9 -0.57037,2 -0.5887,1.1 -1.29537,2 -1.57037,2 -0.275,0 -0.0183,-0.9 0.57037,-2 z m -28,0.63815 c 0,-1.08545 5.968053,-12.63815 6.52879,-12.63815 0.275,0 -0.909811,2.8125 -2.632914,6.25 C 79.629859,155.84114 79,156.87394 79,155.71376 Z m 32,-6.95106 c 0,-0.1721 1.4625,-1.6346 3.25,-3.25 l 3.25,-2.93709 -2.93709,3.25 C 111.82513,148.85507 111,149.53526 111,148.7627 Z m -24.029806,-8.6314 c 0.572308,-1.06937 1.534818,-2.24977 2.13891,-2.62312 0.604092,-0.37335 0.324918,0.50159 -0.620387,1.94431 -2.001622,3.05486 -3.038114,3.51819 -1.518523,0.67881 z M 119,140.7627 c 0,-0.1721 1.4625,-1.6346 3.25,-3.25 l 3.25,-2.93709 -2.93709,3.25 C 119.82513,140.85507 119,141.53526 119,140.7627 Z m 87.40499,-3.93709 c -1.90307,-2.24773 -1.90289,-2.24823 0.17375,-0.5 2.79717,2.35482 3.27108,2.25841 7.37365,-1.5 l 3.54761,-3.25 -3.44617,3.75 c -4.00396,4.35698 -5.05538,4.56317 -7.64884,1.5 z M 90,135.69805 c 0,-0.20765 0.7875,-0.99515 1.75,-1.75 1.586056,-1.24387 1.621426,-1.2085 0.377555,0.37756 C 90.821186,135.99136 90,136.52109 90,135.69805 Z m 39,-3.05207 c 0,-0.275 0.9,-0.98167 2,-1.57037 1.1,-0.5887 2,-0.84537 2,-0.57037 0,0.275 -0.9,0.98167 -2,1.57037 -1.1,0.5887 -2,0.84537 -2,0.57037 z m -30,-7.07037 c 3.54322,-3.575 6.66722,-6.5 6.94222,-6.5 0.275,0 -2.399,2.925 -5.94222,6.5 -3.543223,3.575 -6.667223,6.5 -6.942223,6.5 -0.275,0 2.399,-2.925 5.942223,-6.5 z m 97,4.5 c -0.90129,-0.58246 -1.02463,-0.97549 -0.30902,-0.98469 0.65504,-0.008 1.4691,0.43469 1.80902,0.98469 0.7673,1.24153 0.42112,1.24153 -1.5,0 z m -57,-3 c 0.825,-0.53316 1.95,-0.96937 2.5,-0.96937 0.55,0 0.325,0.43621 -0.5,0.96937 -0.825,0.53316 -1.95,0.96937 -2.5,0.96937 -0.55,0 -0.325,-0.43621 0.5,-0.96937 z m 83.12734,-1.5 c 1.44273,-1.65 2.82189,-3.65284 3.06482,-4.45075 0.27346,-0.89823 0.687,-1.05379 1.08584,-0.40845 0.3543,0.57326 -1.02487,2.5761 -3.06482,4.45075 -3.25515,2.99139 -3.38802,3.04137 -1.08584,0.40845 z M 146.8125,124.3925 c 0.72187,-0.28887 1.58437,-0.25335 1.91667,0.0789 0.33229,0.33229 -0.25834,0.56864 -1.3125,0.52522 -1.16495,-0.048 -1.4019,-0.28494 -0.60417,-0.60416 z m 35,0 c 0.72187,-0.28887 1.58437,-0.25335 1.91667,0.0789 0.33229,0.33229 -0.25834,0.56864 -1.3125,0.52522 -1.16495,-0.048 -1.4019,-0.28494 -0.60417,-0.60416 z M 150.75,123.41333 c 0.6875,-0.27741 1.8125,-0.27741 2.5,0 0.6875,0.27741 0.125,0.50439 -1.25,0.50439 -1.375,0 -1.9375,-0.22698 -1.25,-0.50439 z m 27.0625,-0.0208 c 0.72187,-0.28887 1.58437,-0.25335 1.91667,0.0789 0.33229,0.33229 -0.25834,0.56864 -1.3125,0.52522 -1.16495,-0.048 -1.4019,-0.28494 -0.60417,-0.60416 z m -19.54875,-1.03447 c 1.52006,-0.22986 3.77006,-0.22371 5,0.0136 1.22994,0.23736 -0.0137,0.42542 -2.76375,0.41792 -2.75,-0.008 -3.75631,-0.20172 -2.23625,-0.43157 z m 10,0 c 1.52006,-0.22986 3.77006,-0.22371 5,0.0136 1.22994,0.23736 -0.0137,0.42542 -2.76375,0.41792 -2.75,-0.008 -3.75631,-0.20172 -2.23625,-0.43157 z M 220,116.95355 c -3.48506,-3.05516 -3.48625,-3.05912 -0.28024,-0.92654 1.77087,1.17795 3.48492,2.57077 3.80902,3.09516 0.96465,1.56085 0.16463,1.06919 -3.52878,-2.16862 z m -113,1.7445 c 0,-0.20765 0.7875,-0.99515 1.75,-1.75 1.58606,-1.24387 1.62143,-1.2085 0.37756,0.37756 C 107.82119,118.99136 107,119.52109 107,118.69805 Z m 4.43257,-3.51334 C 112.14603,114.03032 116,111.70204 116,112.42542 c 0,0.23109 -1.18041,1.1936 -2.62312,2.13891 -1.44272,0.9453 -2.31766,1.22448 -1.94431,0.62038 z M 117,111.64598 c 0,-0.275 0.9,-0.98167 2,-1.57037 1.1,-0.5887 2,-0.84537 2,-0.57037 0,0.275 -0.9,0.98167 -2,1.57037 -1.1,0.5887 -2,0.84537 -2,0.57037 z m 89,-3.07037 c -3.575,-1.87163 -6.14967,-3.42479 -5.72148,-3.45148 1.063,-0.0662 12.72148,5.85934 12.72148,6.46588 0,0.67211 0.2345,0.7731 -7,-3.0144 z m -79,-2.5 c 0.825,-0.53316 1.95,-0.96937 2.5,-0.96937 0.55,0 0.325,0.43621 -0.5,0.96937 -0.825,0.53316 -1.95,0.96937 -2.5,0.96937 -0.55,0 -0.325,-0.43621 0.5,-0.96937 z m 5,-2 c 0.825,-0.53316 1.95,-0.96937 2.5,-0.96937 0.55,0 0.325,0.43621 -0.5,0.96937 -0.825,0.53316 -1.95,0.96937 -2.5,0.96937 -0.55,0 -0.325,-0.43621 0.5,-0.96937 z m 62,-0.5 c -1.925,-0.74131 -2.825,-1.36178 -2,-1.37882 0.825,-0.017 2.85,0.58718 4.5,1.34271 3.86206,1.7684 2.0657,1.79435 -2.5,0.0361 z m -57.1875,-1.18311 c 0.72187,-0.28887 1.58437,-0.25335 1.91667,0.0789 0.33229,0.3323 -0.25834,0.56864 -1.3125,0.52522 -1.16495,-0.048 -1.4019,-0.28494 -0.60417,-0.60416 z M 146,100.07561 c 1.375,-0.440352 3.625,-0.792252 5,-0.782012 2.2456,0.0167 2.19472,0.0963 -0.5,0.782012 -1.65,0.41985 -3.9,0.77176 -5,0.78201 -1.5672,0.0146 -1.45899,-0.15463 0.5,-0.78201 z m 37.8125,0.31689 c 0.72187,-0.28887 1.58437,-0.25335 1.91667,0.0789 0.33229,0.3323 -0.25834,0.56864 -1.3125,0.52522 -1.16495,-0.048 -1.4019,-0.28494 -0.60417,-0.60416 z M 177.75,99.413328 c 0.6875,-0.27741 1.8125,-0.27741 2.5,0 0.6875,0.27741 0.125,0.50439 -1.25,0.50439 -1.375,0 -1.9375,-0.22698 -1.25,-0.50439 z m -17.5,-1.07276 c 2.6125,-0.206 6.8875,-0.206 9.5,0 2.6125,0.206 0.475,0.37454 -4.75,0.37454 -5.225,0 -7.3625,-0.16854 -4.75,-0.37454 z"
       style="fill:#4875ca" />
    <path
       inkscape:connector-curvature="0"
       id="path38"
       d="m 309.17315,280.00052 c -8.11723,-1.05272 -12.10859,-2.35583 -20.41135,-6.66395 -12.10123,-6.27905 -23.10306,-19.1707 -27.76834,-32.53818 -2.73732,-7.84328 -3.70404,-22.37911 -2.05824,-30.94808 1.60253,-8.34362 7.8619,-21.05041 13.52898,-27.46438 13.34396,-15.10261 36.38122,-22.95319 55.5358,-18.92535 22.28577,4.68627 39.48077,20.42857 45.67568,41.8168 11.75393,40.58102 -22.42848,80.17973 -64.50253,74.72314 z M 330.5,254.22557 c 18.53618,-8.79994 25.43314,-31.99483 15.08544,-50.73325 -13.28553,-24.05849 -46.65844,-22.6949 -58.41526,2.38679 -2.36451,5.04438 -2.66938,6.89851 -2.66316,16.1965 0.006,9.50435 0.26694,10.99433 2.74814,15.71308 6.89573,13.11435 16.39345,19.15695 30.24484,19.24224 5.68155,0.035 8.1301,-0.49341 13,-2.80536 z m 400.72626,24.72944 C 703.00563,274.79309 682,250.09502 682,221.07561 c 0,-16.20003 5.78523,-29.90409 17.58598,-41.65768 24.62054,-24.52214 61.501,-20.87115 80.27677,7.94703 3.73511,5.73286 9.68695,18.5259 8.94115,19.21834 -0.25261,0.23454 -40.30922,17.12284 -70.02204,29.52206 -7.21365,3.01027 -7.6454,3.35968 -6.6053,5.34552 2.89095,5.51968 7.34661,9.75696 13.38646,12.73037 6.11383,3.00983 6.89405,3.14776 14.95929,2.64459 10.56696,-0.65925 17.26342,-3.67559 23.89164,-10.76169 l 4.66487,-4.98713 8.96059,6.02509 c 4.92833,3.3138 8.96059,6.51353 8.96059,7.11051 0,2.32226 -8.45491,11.01182 -14.85313,15.26535 -11.96582,7.95486 -27.24617,11.49373 -40.92061,9.47704 z m 5.23237,-71.34075 c 12.62725,-5.29242 23.07731,-9.74126 23.22236,-9.88631 0.14505,-0.14505 -1.06063,-1.8704 -2.67929,-3.83411 -10.08463,-12.2344 -34.40409,-10.02524 -44.06907,4.0032 -3.13125,4.54492 -5.86063,12.8152 -5.89998,17.87754 l -0.0326,4.19898 3.25,-1.36836 c 1.7875,-0.75259 13.58138,-5.69851 26.20863,-10.99094 z M 645,190.07561 v -86 h 12.5 12.5 v 86 86 H 657.5 645 Z"
       style="fill:#e13226" />
    <path
       inkscape:connector-curvature="0"
       id="path40"
       d="m 645,190.07561 v -86 h 12.5 12.5 v 86 86 H 657.5 645 Z"
       style="fill:#259841" />
    <path
       inkscape:connector-curvature="0"
       id="path42"
       d="m 648.61844,273.52367 c -0.34149,-0.88992 -0.17385,-1.29132 0.39301,-0.94098 0.5437,0.33602 0.98855,-0.0425 0.98855,-0.84107 0,-0.79862 0.675,-1.71105 1.5,-2.02764 1.99025,-0.76373 1.89632,0.25159 -0.25,2.70245 -1.67018,1.90716 -1.66781,1.96829 0.0519,1.3402 1.07744,-0.39351 1.55629,-0.26065 1.19098,0.33043 -0.93239,1.50864 -3.20624,1.178 -3.87448,-0.56339 z m 5.83182,-0.19806 c 0.15031,-0.9625 -0.12884,-2.8295 -0.62034,-4.14888 -0.7365,-1.97708 -0.65206,-2.1984 0.48024,-1.25868 0.75562,0.62712 1.59495,0.91911 1.86518,0.64888 0.27023,-0.27022 0.49133,0.16389 0.49133,0.96469 0,0.80081 -0.4875,1.17866 -1.08334,0.83968 -0.61622,-0.35059 -0.72099,-0.22383 -0.24297,0.29398 0.46219,0.50068 1.76725,0.91033 2.90013,0.91033 1.19545,0 2.16946,0.73434 2.32116,1.75 0.14376,0.9625 -0.19694,1.75 -0.75712,1.75 -0.56018,0 -0.77903,-0.62407 -0.48634,-1.38682 0.37333,-0.97287 -0.0425,-1.23654 -1.39301,-0.88336 -1.05885,0.27689 -1.92518,0.90096 -1.92518,1.38681 0,0.48585 -0.41018,0.88337 -0.91152,0.88337 -0.50133,0 -0.78853,-0.7875 -0.63822,-1.75 z M 662,273.61768 c 0,-0.57314 1.51771,-1.04207 3.37268,-1.04207 1.85498,0 3.1996,0.45105 2.98805,1.00234 -0.51241,1.33531 -6.36073,1.37183 -6.36073,0.0397 z m 2.00071,-4.35109 c -3.9e-4,-0.71996 0.44414,-1.03408 0.98784,-0.69806 0.56686,0.35034 0.7345,-0.0511 0.39301,-0.94098 -0.59491,-1.5503 -2.48717,-2.22082 -2.26314,-0.80194 0.40277,2.55087 -0.47087,3.20836 -0.99656,0.75 -0.35282,-1.65 -1.27458,-3 -2.04835,-3 -1.74596,0 -2.54859,-2.08835 -1.13775,-2.9603 0.6473,-0.40005 0.79217,0.006 0.38285,1.07241 -0.4577,1.19273 -0.28839,1.48725 0.55526,0.96585 0.66756,-0.41258 1.79403,-0.26854 2.50327,0.32007 0.95419,0.79191 1.28953,0.68427 1.28953,-0.41391 0,-0.81626 -0.5248,-1.48412 -1.16622,-1.48412 -1.22998,0 -1.41103,-3.32148 -0.2044,-3.75 1.53708,-0.54588 2.70395,-0.19675 2.70395,0.80902 0,0.58246 -0.45,0.7809 -1,0.44098 -0.55,-0.33992 -1,-0.14148 -1,0.44098 0,1.82585 2.99628,1.15152 3.07029,-0.69098 0.0596,-1.48354 0.19106,-1.44547 0.8635,0.25 0.48267,1.21698 0.35728,2.28764 -0.32028,2.73469 -1.03503,0.68291 -0.18045,1.16118 1.6005,0.89573 0.39271,-0.0585 0.45266,0.57466 0.13322,1.4071 -0.4299,1.12029 -0.91974,1.23223 -1.88534,0.43085 -1.01556,-0.84284 -1.18938,-0.64231 -0.78468,0.90528 0.312,1.19308 1.08023,1.77292 1.92133,1.45016 0.7708,-0.29578 1.40146,-0.0131 1.40146,0.62822 0,0.6413 -0.45,0.88789 -1,0.54797 -0.55,-0.33992 -1,-0.17898 -1,0.35765 0,0.53663 0.5625,1.18126 1.25,1.43251 0.6875,0.25125 0.0128,0.40125 -1.49929,0.33333 -1.53557,-0.069 -2.74961,-0.70138 -2.75,-1.43251 z m -15.9854,-1 c -0.01,-1.49305 0.39267,-2.05687 1.1392,-1.59549 0.71395,0.44125 0.88312,0.27441 0.4433,-0.43722 -1.14937,-1.85972 -1.5548,-5.15827 -0.63401,-5.15827 0.46693,0 0.62983,-0.83794 0.36201,-1.86209 -0.27867,-1.06565 0.12875,-2.09836 0.95254,-2.41448 1.04149,-0.39966 1.41533,0.18429 1.35215,2.11209 -0.048,1.46547 -0.5181,2.96768 -1.04461,3.33826 -0.59974,0.42213 -0.56058,1.16914 0.10483,2 0.62185,0.77648 0.72796,2.15525 0.25598,3.32622 -0.44337,1.1 -0.84465,1.55 -0.89173,1 -0.0471,-0.55 -0.52181,-0.325 -1.05497,0.5 -0.77988,1.20677 -0.97237,1.04862 -0.98469,-0.80902 z m 10.14258,-0.19098 c 0,-1.375 0.22698,-1.9375 0.50439,-1.25 0.27741,0.6875 0.27741,1.8125 0,2.5 -0.27741,0.6875 -0.50439,0.125 -0.50439,-1.25 z m -5.59151,-3.89778 c -1.34966,-0.52853 -1.57124,-0.98118 -0.73369,-1.49882 0.65996,-0.40788 1.01483,-1.048 0.78858,-1.4225 -0.22624,-0.37449 0.15592,-1.20462 0.84924,-1.84473 0.9964,-0.91992 1.23638,-0.44866 1.14504,2.2486 -0.0635,1.87684 -0.11555,3.38144 -0.11555,3.34355 0,-0.0379 -0.87013,-0.40964 -1.93362,-0.8261 z m 3.17103,-0.85222 c -0.20934,-0.4125 -0.0533,-2.1 0.34678,-3.75 0.69329,-2.85933 0.72224,-2.82416 0.61722,0.75 -0.11194,3.80982 -0.28294,4.34198 -0.964,3 z m 2.26259,-5.75 c 0,-0.825 0.17686,-1.5 0.39301,-1.5 0.21616,0 0.65203,0.675 0.96862,1.5 0.31658,0.825 0.13972,1.5 -0.39301,1.5 -0.53274,0 -0.96862,-0.675 -0.96862,-1.5 z m 5.5446,-1.84373 c -1.68591,-1.23277 -1.57939,-1.35092 1.29159,-1.43255 1.72098,-0.0489 3.43141,0.40024 3.80094,0.99817 0.42259,0.68376 0.20204,0.79674 -0.59442,0.3045 -0.70103,-0.43325 -1.57754,-0.27905 -1.96348,0.34542 -0.50482,0.81682 -1.20413,0.75735 -2.53463,-0.21554 z m -8.17754,-0.40627 c 0.41304,-0.6875 0.27442,-1.25 -0.30804,-1.25 -0.58246,0 -1.05902,-0.5051 -1.05902,-1.12244 0,-0.77551 0.46364,-0.73766 1.5,0.12244 1.2014,0.99708 1.5,0.98827 1.5,-0.0442 0,-0.70901 0.2961,-0.99302 0.65799,-0.63112 0.98256,0.98256 3.29588,-1.28129 2.75353,-2.69465 -0.29493,-0.76857 0.45262,-1.20632 2.00978,-1.17688 3.23266,0.0611 4.78146,1.61115 3.55237,3.55523 -0.62956,0.99579 -0.94813,1.07612 -0.95836,0.24164 -0.0244,-1.99024 -3.1078,-1.44938 -5.14801,0.90301 -1.02702,1.18416 -1.8673,1.80405 -1.8673,1.37755 0,-0.42649 -0.76138,-0.15785 -1.69196,0.597 -1.14966,0.93255 -1.45126,0.9718 -0.94098,0.12244 z M 648,249.52583 c 0,-0.88849 1.37588,-1.12309 4.74232,-0.80861 6.72988,0.6287 7.16626,1.83965 0.70605,1.95931 C 649.69882,250.74598 648,250.38719 648,249.52583 Z m 0.69812,-2.27354 C 647.76415,247.07446 647,246.47933 647,245.92979 c 0,-0.57382 2.31235,-0.89207 5.43172,-0.74757 3.37318,0.15625 6.03476,-0.24887 7.0229,-1.06895 1.3623,-1.13061 1.49776,-1.07714 0.94179,0.37169 -0.55087,1.43556 -0.21306,1.58357 2.22711,0.9758 1.58206,-0.39404 3.39645,-1.42084 4.03196,-2.28178 0.948,-1.28425 1.06174,-1.07493 0.63343,1.16565 -0.36655,1.91744 -1.1576,2.75692 -2.65549,2.81807 -8.07654,0.32972 -14.48491,0.36574 -15.9353,0.0896 z m -0.21409,-6.35203 c -1.82879,-0.79796 -1.81173,-0.83328 0.21802,-0.45133 1.21113,0.2279 2.33613,0.0266 2.5,-0.44743 0.16387,-0.47399 0.89849,-0.48865 1.63248,-0.0326 1.97212,1.22537 -1.8174,2.03663 -4.3505,0.93134 z M 655,241.04423 c 0,-0.53274 0.675,-0.96862 1.5,-0.96862 0.825,0 1.5,0.17686 1.5,0.39301 0,0.21616 -0.675,0.65203 -1.5,0.96862 -0.825,0.31658 -1.5,0.13972 -1.5,-0.39301 z m 5.621,-0.16084 c -0.91469,-0.51189 -1.44287,-1.28699 -1.17373,-1.72246 0.26913,-0.43546 -2.30891,-0.74531 -5.72897,-0.68854 -6.15178,0.10212 -6.2183,0.0736 -6.2183,-2.66513 0,-2.42186 0.15254,-2.55974 1.21874,-1.10161 0.92739,1.26827 1.54269,1.39788 2.5738,0.54214 1.00958,-0.83788 1.67313,-0.81198 2.60268,0.10161 0.6862,0.67442 1.10299,0.77621 0.92621,0.22621 -0.17679,-0.55 0.12857,-1.0133 0.67857,-1.02955 0.55,-0.0163 0.86777,0.54624 0.70616,1.25 -0.16161,0.70375 0.42745,1.27955 1.30902,1.27955 0.88157,0 1.35614,-0.39919 1.0546,-0.8871 -0.30154,-0.4879 0.2344,-0.8254 1.19098,-0.75 0.96193,0.0758 1.61644,-0.45478 1.46446,-1.18723 -0.15112,-0.72838 0.19372,-1.03479 0.76632,-0.6809 0.57259,0.35388 0.8014,1.03124 0.50846,1.50523 -0.29294,0.47399 -0.0679,1.14899 0.5,1.5 0.56794,0.35101 0.76919,1.06444 0.44721,1.58541 -0.32197,0.52097 -1.00431,0.68832 -1.51631,0.37188 -0.51199,-0.31643 -0.9309,-0.12866 -0.9309,0.41727 0,0.54593 1.2375,1.13803 2.75,1.31579 2.44394,0.28723 2.51539,0.39136 0.64203,0.93566 -1.15938,0.33686 -2.85634,0.19365 -3.77103,-0.31823 z m 3.99578,-3.36404 c -0.86923,-2.2652 -0.88506,-2.24765 1.88251,-2.08795 1.42134,0.082 2.4996,0.75523 2.5,1.56088 3.9e-4,0.77916 -0.29539,1.12057 -0.65728,0.75867 -0.3619,-0.36189 -1.20934,-0.20041 -1.88322,0.35886 -0.86841,0.72072 -1.40484,0.54877 -1.84201,-0.59046 z m -16.18918,-5.56089 c -0.52314,-0.84645 -0.2436,-1.02622 0.90836,-0.58417 2.15111,0.82546 2.17056,-0.91584 0.0236,-2.11731 -2.29967,-1.28696 -0.7816,-3.47759 1.54648,-2.23163 1.24093,0.66412 2.40116,0.52336 3.80795,-0.46199 2.08756,-1.46219 3.28597,-1.06969 3.28597,1.0762 0,0.76747 -1.29711,1.16961 -3.44654,1.06851 -2.83933,-0.13354 -3.41191,0.17345 -3.25,1.74249 0.23012,2.23002 -1.77862,3.28327 -2.87586,1.5079 z M 654,230.90894 c 0,-0.45833 0.42344,-0.83333 0.94098,-0.83333 0.51754,0 1.17275,0.375 1.45601,0.83333 0.28327,0.45834 -0.14017,0.83334 -0.94098,0.83334 -0.8008,0 -1.45601,-0.375 -1.45601,-0.83334 z m 8.07895,0.0237 c -0.0434,-0.90366 -0.75395,-1.90203 -1.57895,-2.21862 -0.825,-0.31658 -1.5,-1.09482 -1.5,-1.72943 0,-0.83569 0.41007,-0.8135 1.48727,0.0805 1.82918,1.51809 4.93887,0.53652 3.90422,-1.23237 -0.4044,-0.69138 0.16609,-0.46858 1.26777,0.49512 1.10167,0.9637 2.30402,1.4512 2.67189,1.08334 0.36787,-0.36787 0.66885,-0.36885 0.66885,-0.002 0,1.16826 -4.14241,4.85759 -4.76033,4.23967 -0.32652,-0.32652 0.27348,-1.28884 1.33333,-2.1385 1.85749,-1.48911 1.84898,-1.50718 -0.23585,-0.50113 -1.18956,0.57404 -2.39154,1.61137 -2.67105,2.30517 -0.32643,0.81026 -0.53644,0.67379 -0.58715,-0.38155 z m -10.44058,-6.35703 c -0.31658,-0.825 -1.48972,-1.5 -2.60699,-1.5 -1.11726,0 -2.03138,-0.43588 -2.03138,-0.96862 0,-0.53273 0.675,-0.70959 1.5,-0.39301 0.825,0.31659 1.5,0.0775 1.5,-0.53138 0,-0.60885 -0.675,-1.10699 -1.5,-1.10699 -0.825,0 -1.5,-0.45 -1.5,-1 0,-0.55 0.3375,-0.94671 0.75,-0.88158 2.1214,0.33496 3.29918,-0.25436 2.73486,-1.36842 -0.34825,-0.6875 0.068,-0.38628 0.92508,0.66938 1.53644,1.89251 1.58888,1.89251 3.74605,0 1.20329,-1.05566 1.85889,-1.35688 1.45689,-0.66938 -0.51858,0.88687 0.15774,1.25 2.3281,1.25 1.77238,0 3.06546,-0.52576 3.07433,-1.25 0.0108,-0.87846 0.23369,-0.91852 0.75,-0.13478 0.95956,1.45656 5.72905,2.99369 4.84361,1.56101 -0.35285,-0.57092 -0.22371,-1.29627 0.28698,-1.61189 0.99634,-0.61578 0.89919,1.97391 -0.11199,2.98508 -1.01532,1.01532 -5.79615,1.23979 -6.37733,0.29942 -0.29963,-0.4848 -0.96368,-0.62257 -1.47568,-0.30613 -2.16094,1.33553 -0.60949,2.084 4.0691,1.96304 3.46391,-0.0896 5,0.26408 5,1.1511 0,0.78337 -0.64594,1.03251 -1.66404,0.64183 -1.24791,-0.47887 -1.44998,-0.28346 -0.80805,0.78138 0.70887,1.17587 0.58711,1.20224 -0.70834,0.1534 -0.86039,-0.69659 -2.85927,-1.19558 -4.44196,-1.10885 -4.9883,0.27333 -6.37761,-0.0806 -6.37761,-1.62461 0,-0.825 -0.40186,-1.5 -0.89301,-1.5 -1.26417,0 -2.15178,2.71971 -1.46862,4.5 0.31659,0.825 0.35061,1.5 0.0756,1.5 -0.275,0 -0.75902,-0.675 -1.07561,-1.5 z m 13,-10 c -0.31658,-0.825 -0.13972,-1.5 0.39301,-1.5 0.53274,0 0.96862,0.675 0.96862,1.5 0,0.825 -0.17686,1.5 -0.39301,1.5 -0.21616,0 -0.65203,-0.675 -0.96862,-1.5 z m -16.06526,-0.45027 c -1.57436,-0.57193 -1.64924,-0.80654 -0.40931,-1.28234 1.68107,-0.64509 4.55362,0.68862 3.19296,1.48248 -0.47122,0.27493 -1.72386,0.18487 -2.78365,-0.20014 z m 8.4752,-0.58482 c 1.37153,-0.73919 2.59946,-0.90964 2.7871,-0.38689 0.18448,0.51394 0.85948,0.63449 1.5,0.26789 0.65542,-0.37513 0.80656,-0.27486 0.34569,0.22933 -0.4504,0.49275 -2.22866,0.9668 -3.9517,1.05346 l -3.13279,0.15755 z m -10.03301,-4.46491 c 0.0121,-1.98122 0.21648,-2.18873 0.9847,-1 0.58418,0.90395 0.97546,1.02614 0.98469,0.3075 0.009,-0.6848 1.82473,-1.32342 4.26531,-1.5 3.15622,-0.22836 4.16728,-0.69354 3.92857,-1.8075 -0.25725,-1.2005 -0.0683,-1.25117 0.94625,-0.25375 1.02132,1.00406 0.88945,1.53232 -0.67857,2.7182 -1.78242,1.34804 -1.79684,1.47462 -0.17125,1.50375 1.18558,0.0212 1.97531,-0.96973 2.37821,-2.98424 0.47687,-2.38435 0.88468,-2.78244 1.94712,-1.90069 1.11982,0.92937 1.09844,1.36081 -0.12821,2.58747 -1.85776,1.85776 -1.85212,2.32926 0.0279,2.32926 0.825,0 1.3875,-0.3375 1.25,-0.75 -0.1375,-0.4125 0.2,-0.75 0.75,-0.75 0.55,0 0.85536,0.45 0.67857,1 -0.17678,0.55 0.25072,0.4375 0.95,-0.25 1.51569,-1.49014 3.25094,-1.67308 2.37143,-0.25 -0.33992,0.55 -0.14148,1 0.44098,1 0.58246,0 1.059,0.5625 1.05899,1.25 -3e-5,0.92424 -2.86672,1.25 -11.00002,1.25 h -10.99998 l 0.0153,-2.5 z m 2.35258,-4.21378 c -0.26725,-0.43242 0.89064,-0.78622 2.5731,-0.78622 1.68246,0 3.05902,-0.36991 3.05902,-0.82203 0,-0.45211 -1.76132,-0.75624 -3.91404,-0.67584 -3.88435,0.14507 -3.90142,0.1293 -2.25,-2.07856 1.3312,-1.77976 1.82399,-1.9446 2.46373,-0.82415 1.25548,2.19886 3.95147,1.76727 3.22661,-0.51654 -0.50902,-1.60381 -0.23403,-1.81941 1.68262,-1.31919 1.26009,0.32886 2.84851,1.15435 3.5298,1.83442 0.70173,0.70045 2.97766,1.0968 5.25,0.91427 3.39063,-0.27235 4.01128,-0.0275 4.01128,1.58271 0,1.0477 -0.47656,1.90491 -1.05902,1.90491 -0.58246,0 -0.83863,0.35659 -0.56928,0.79241 1.14153,1.84703 -3.47713,0.89516 -4.79651,-0.98852 -0.9682,-1.38231 -2.13505,-1.89075 -3.51251,-1.53053 C 657.9282,202.64564 657,202.4805 657,201.98199 c 0,-0.49851 -0.37323,-0.90638 -0.8294,-0.90638 -0.45617,0 -0.79367,0.96595 -0.75,2.14655 0.062,1.67643 -0.53889,2.17713 -2.74371,2.28622 -1.5527,0.0768 -3.04176,-0.21413 -3.30901,-0.64655 z M 667.5,203.07561 c 0.34463,-0.55763 -0.40341,-0.99323 -1.69098,-0.98469 -1.85764,0.0123 -2.01579,0.20481 -0.80902,0.98469 1.86074,1.2025 1.75681,1.2025 2.5,0 z m -18.5,-7 c -0.90129,-0.58246 -1.02463,-0.97549 -0.30902,-0.98469 0.65504,-0.008 1.4691,0.43469 1.80902,0.98469 0.7673,1.24153 0.42112,1.24153 -1.5,0 z m 4.60836,-0.76531 c 0.6096,-0.40408 0.9898,-1.50253 0.8449,-2.441 -0.14491,-0.93847 0.45521,-2.28847 1.33359,-3 0.87839,-0.71153 1.31744,-0.82555 0.97568,-0.25337 -0.38692,0.64779 0.9556,1.08109 3.55804,1.14837 2.29869,0.0594 3.61693,-0.10873 2.92943,-0.37366 -0.6875,-0.26493 -1.25,-0.88467 -1.25,-1.3772 0,-0.49253 1.56293,-0.11753 3.47318,0.83333 3.16159,1.57374 4.35097,4.07865 1.65182,3.47884 -0.61875,-0.1375 -1.125,0.51101 -1.125,1.44113 0,1.4828 -0.19484,1.452 -1.58164,-0.25 -1.51335,-1.85733 -1.55553,-1.85947 -0.9771,-0.0497 0.49493,1.54856 0.34608,1.67696 -0.82112,0.70827 -1.10619,-0.91806 -1.54179,-0.89374 -1.94395,0.10855 -0.3296,0.82147 -0.54704,0.65463 -0.59724,-0.45826 -0.0529,-1.17275 -0.89324,-1.75 -2.54757,-1.75 -1.78348,0 -2.30886,0.41631 -1.89301,1.5 0.3852,1.00382 -0.0387,1.49493 -1.28138,1.48469 -1.13282,-0.009 -1.42476,-0.30182 -0.74863,-0.75 z M 657.5,195.07561 c -0.33992,-0.55 -0.14148,-1 0.44098,-1 0.58246,0 1.05902,0.45 1.05902,1 0,0.55 -0.19844,1 -0.44098,1 -0.24254,0 -0.7191,-0.45 -1.05902,-1 z M 647,192.94624 c 0,-0.38718 0.5625,-0.9322 1.25,-1.21117 0.94376,-0.38294 0.88251,-0.7895 -0.25,-1.65946 -1.33333,-1.02423 -1.33333,-1.08832 0,-0.57677 0.825,0.31651 2.2875,0.85326 3.25,1.19276 3.0182,1.0646 2.08604,3.44138 -1.25,3.18719 -1.65,-0.12573 -3,-0.54538 -3,-0.93255 z m 19,-3.87063 c 0,-0.55 0.42344,-1 0.94098,-1 0.51754,0 1.2191,0.45 1.55902,1 0.33992,0.55 -0.0835,1 -0.94098,1 -0.85746,0 -1.55902,-0.45 -1.55902,-1 z m -18.65054,-2.24358 c -0.38833,-0.62833 -0.18482,-0.7727 0.49603,-0.35191 1.12465,0.69507 1.57961,-0.52369 1.20951,-3.24006 -0.1089,-0.7993 0.54619,-1.1862 1.63152,-0.9636 0.99741,0.20457 2.40935,-0.31943 3.13764,-1.16445 1.11704,-1.29608 1.20432,-1.30178 0.55804,-0.0364 -0.60143,1.17755 -0.45615,1.26933 0.67584,0.42692 0.79308,-0.59019 2.56696,-1.10683 3.94196,-1.14808 1.375,-0.0412 1.9347,0.14257 1.24377,0.40849 -0.69093,0.26592 -0.97412,0.93995 -0.62932,1.49785 0.3448,0.5579 -0.40532,0.46193 -1.66692,-0.21326 l -2.29382,-1.22762 2.20285,2.80048 c 1.69954,2.16061 1.91046,2.98815 0.92315,3.62191 -0.8194,0.52598 -1.7732,0.10419 -2.65168,-1.17262 -1.68354,-2.44691 -5.34479,-2.71296 -4.92187,-0.35766 0.33309,1.85499 -2.83402,2.77474 -3.8567,1.12001 z M 658,185.57561 c 0,-0.825 -0.43588,-1.5 -0.96862,-1.5 -0.53273,0 -0.70959,0.675 -0.39301,1.5 0.31659,0.825 0.75246,1.5 0.96862,1.5 0.21615,0 0.39301,-0.675 0.39301,-1.5 z m 3.70132,-0.16404 c 0.43125,-1.12383 0.25628,-1.42779 -0.53897,-0.9363 -0.90134,0.55706 -0.90051,0.11978 0.004,-1.86433 0.64956,-1.42565 1.46001,-2.14068 1.80099,-1.58896 0.34098,0.55172 1.72543,1.20605 3.07656,1.45407 3.61829,0.66419 3.62644,0.67277 1.45659,1.53335 -1.21599,0.48228 -2.29401,0.35672 -2.75003,-0.32028 -0.47285,-0.70201 -0.97789,-0.28203 -1.36663,1.13649 -0.33913,1.2375 -1,2.25 -1.46859,2.25 -0.46859,0 -0.56463,-0.74882 -0.21343,-1.66404 z M 648.25,178.57671 c 0,-1.91825 0.45946,-2.20331 3.125,-1.93884 1.71875,0.17054 3.9125,0.33879 4.875,0.3739 0.9625,0.0351 1.75,0.45481 1.75,0.93267 0,0.47785 -1.39687,0.70618 -3.10415,0.5074 -2.30927,-0.26887 -2.96976,-0.0112 -2.57935,1.00617 0.34998,0.91205 -0.2399,1.3676 -1.77085,1.3676 -1.71367,0 -2.29565,-0.57012 -2.29565,-2.2489 z m 17.25,1.4989 c -0.33992,-0.55 -0.14148,-1 0.44098,-1 0.58246,0 1.05902,0.45 1.05902,1 0,0.55 -0.19844,1 -0.44098,1 -0.24254,0 -0.7191,-0.45 -1.05902,-1 z m -3.58048,-3.09387 c 1.60213,-0.64038 2.76764,-0.61897 3.45,0.0634 0.70731,0.70731 -0.0515,1.0106 -2.41952,0.96709 -3.24171,-0.0596 -3.30393,-0.12177 -1.03048,-1.03048 z m -13.26627,-1.72945 C 647.74396,175.07446 647,174.47933 647,173.92979 c 0,-0.57382 2.31235,-0.89207 5.43172,-0.74757 3.37318,0.15625 6.03476,-0.24887 7.0229,-1.06895 1.35746,-1.12659 1.49865,-1.07946 0.96128,0.3209 -0.35024,0.91272 -0.13843,1.64144 0.47711,1.64144 0.60885,0 1.10699,-0.62686 1.10699,-1.39301 0,-0.76616 0.675,-1.65203 1.5,-1.96862 0.91371,-0.35062 1.5,-0.002 1.5,0.89301 0,0.80774 0.64844,1.46862 1.44098,1.46862 2.66742,0 2.44193,1.57309 -0.26307,1.8353 -4.73472,0.45895 -15.81937,0.67488 -17.52466,0.34138 z m 0.20745,-6.39358 c -1.05463,-0.75318 -0.98159,-0.85071 0.32469,-0.43361 0.92697,0.29599 1.82697,0.12786 2,-0.37362 0.17368,-0.50336 0.9124,-0.54034 1.64914,-0.0826 1.02011,0.63384 0.86948,0.95083 -0.6393,1.34538 -1.08561,0.2839 -2.58615,0.0789 -3.33453,-0.45559 z M 655,169.04423 c 0,-0.53274 0.675,-0.96862 1.5,-0.96862 0.825,0 1.5,0.17686 1.5,0.39301 0,0.21616 -0.675,0.65203 -1.5,0.96862 -0.825,0.31658 -1.5,0.13972 -1.5,-0.39301 z m 4.34416,-1.11338 c -2.01534,-1.35218 -4.15551,-1.81245 -7.34416,-1.57946 -4.34746,0.31767 -4.5,0.2332 -4.5,-2.49183 0,-2.46299 0.15454,-2.6093 1.21874,-1.15391 0.92739,1.26827 1.54269,1.39788 2.5738,0.54214 1.00958,-0.83788 1.67313,-0.81198 2.60268,0.10161 0.6862,0.67442 1.10299,0.77621 0.92621,0.22621 -0.17679,-0.55 0.12857,-1.0675 0.67857,-1.15 0.55,-0.0825 0.87064,0.30557 0.71254,0.86237 -0.1581,0.5568 0.5169,1.602 1.5,2.32265 1.54763,1.13448 1.90905,1.01878 2.69367,-0.86237 0.49842,-1.19496 0.82477,-2.5436 0.72523,-2.99698 -0.0996,-0.45338 0.2875,-0.53479 0.8601,-0.1809 0.57259,0.35388 0.8014,1.03124 0.50846,1.50523 -0.29294,0.47399 -0.0679,1.14899 0.5,1.5 0.56794,0.35101 0.76919,1.06444 0.44721,1.58541 -0.32197,0.52097 -1.00431,0.68832 -1.51631,0.37188 -0.51199,-0.31643 -0.9309,-0.12866 -0.9309,0.41727 0,0.54593 1.2375,1.13803 2.75,1.31579 2.49603,0.29335 2.5509,0.38092 0.59416,0.94818 -1.34164,0.38895 -3.22999,-0.0957 -5,-1.28329 z m 5.27262,-2.4115 c -0.86923,-2.2652 -0.88506,-2.24765 1.88251,-2.08795 1.42134,0.082 2.4996,0.75523 2.5,1.56088 3.9e-4,0.77916 -0.29539,1.12057 -0.65728,0.75867 -0.3619,-0.36189 -1.20934,-0.20041 -1.88322,0.35886 -0.86841,0.72072 -1.40484,0.54877 -1.84201,-0.59046 z m -16.18918,-5.56089 c -0.52314,-0.84645 -0.2436,-1.02622 0.90836,-0.58417 2.15111,0.82546 2.17056,-0.91584 0.0236,-2.11731 -2.29967,-1.28696 -0.7816,-3.47759 1.54648,-2.23163 1.24862,0.66824 2.41433,0.51414 3.88082,-0.51303 1.87715,-1.31481 2.20351,-1.28372 3.1242,0.29756 0.69142,1.18752 1.03804,1.31631 1.05849,0.39329 0.0244,-1.10112 0.32444,-1.12843 1.51768,-0.13813 1.82918,1.51809 4.93887,0.53652 3.90422,-1.23237 -0.4044,-0.69138 0.16609,-0.46858 1.26777,0.49512 1.10167,0.9637 2.30402,1.4512 2.67189,1.08334 0.36787,-0.36787 0.66885,-0.36885 0.66885,-0.002 0,1.16826 -4.14241,4.85759 -4.76033,4.23967 -0.32652,-0.32652 0.27348,-1.24163 1.33333,-2.0336 1.86095,-1.39057 1.85172,-1.42098 -0.26944,-0.88704 -1.20804,0.30409 -2.39334,1.29421 -2.634,2.20027 -0.38336,1.44332 -0.45193,1.43061 -0.55356,-0.10263 -0.0721,-1.08815 -0.96695,-1.77911 -2.366,-1.82697 -1.2375,-0.0423 -3.68732,-0.15483 -5.44404,-0.25 -2.58545,-0.14006 -3.15706,0.18704 -3,1.71674 0.2278,2.21853 -1.7848,3.26251 -2.87836,1.49308 z M 654,158.90894 c 0,-0.45833 0.42344,-0.83333 0.94098,-0.83333 0.51754,0 1.17275,0.375 1.45601,0.83333 0.28327,0.45834 -0.14017,0.83334 -0.94098,0.83334 -0.8008,0 -1.45601,-0.375 -1.45601,-0.83334 z m -2,-5.81428 c 0,-0.53952 -1.125,-1.2633 -2.5,-1.60841 -1.375,-0.3451 -2.5,-0.96627 -2.5,-1.38038 0,-0.4141 1.125,-0.53786 2.5,-0.27501 1.45935,0.27897 2.5,0.0131 2.5,-0.63867 0,-0.61412 -1.125,-1.11658 -2.5,-1.11658 -1.375,0 -2.5,-0.45 -2.5,-1 0,-0.55 0.3375,-0.94671 0.75,-0.88158 2.1214,0.33496 3.29918,-0.25436 2.73486,-1.36842 -0.34825,-0.6875 0.0453,-0.41744 0.87445,0.60014 1.47066,1.80478 4.24082,1.42991 3.09798,-0.41924 -0.31643,-0.51199 0.15279,-0.9309 1.04271,-0.9309 0.88992,0 1.33992,0.45 1,1 -0.36058,0.58342 0.65628,1 2.44098,1 1.77238,0 3.06546,-0.52576 3.07433,-1.25 0.0108,-0.87846 0.23369,-0.91852 0.75,-0.13478 0.95956,1.45656 5.72905,2.99369 4.84361,1.56101 -0.35285,-0.57092 -0.22371,-1.29627 0.28698,-1.61189 0.99634,-0.61578 0.89919,1.97391 -0.11199,2.98508 -1.01532,1.01532 -5.79615,1.23979 -6.37733,0.29942 -0.29963,-0.4848 -0.96368,-0.62257 -1.47568,-0.30613 -2.16094,1.33553 -0.60949,2.084 4.0691,1.96304 3.46391,-0.0896 5,0.26408 5,1.1511 0,0.78337 -0.64594,1.03251 -1.66404,0.64183 -1.24791,-0.47887 -1.44998,-0.28346 -0.80805,0.78138 0.70887,1.17587 0.58711,1.20224 -0.70834,0.1534 -0.86039,-0.69659 -2.85927,-1.19558 -4.44196,-1.10885 -4.9883,0.27333 -6.37761,-0.0806 -6.37761,-1.62461 0,-0.825 -0.40186,-1.5 -0.89301,-1.5 -1.26417,0 -2.15178,2.71971 -1.46862,4.5 0.31659,0.825 0.30246,1.5 -0.0314,1.5 -0.33383,0 -0.60697,-0.44143 -0.60697,-0.98095 z m -3.45565,-10.97941 c -1.94086,-0.70472 -1.94086,-0.71946 0,-1.95037 1.54484,-0.97974 1.58804,-1.12598 0.20565,-0.69616 -1.37303,0.42691 -1.7467,-0.0415 -1.73469,-2.17449 0.012,-2.12264 0.22782,-2.38979 0.98469,-1.21862 0.58418,0.90395 0.97546,1.02614 0.98469,0.3075 0.009,-0.6848 1.82473,-1.32342 4.26531,-1.5 3.12443,-0.22606 4.17995,-0.70476 3.98552,-1.8075 -0.20445,-1.15947 0.045,-1.10625 1.09887,0.23446 1.58652,2.01835 2.81027,1.32477 1.90948,-1.08223 -0.5253,-1.40365 -0.37788,-1.45686 0.97987,-0.35367 1.14924,0.93377 1.79209,0.98485 2.28838,0.18182 0.3796,-0.6142 1.30525,-0.8807 2.05701,-0.59223 0.75175,0.28848 1.64127,0.0804 1.97671,-0.46232 0.38131,-0.61697 -1.48067,-0.87181 -4.96797,-0.67995 -3.06783,0.16878 -5.57787,-0.0425 -5.57787,-0.4695 0,-0.42701 -0.37323,-0.77638 -0.8294,-0.77638 -0.45617,0 -0.79367,0.95518 -0.75,2.12261 0.0597,1.59552 -0.59956,2.19897 -2.65479,2.4301 -1.5038,0.16911 -2.99286,-0.11106 -3.30901,-0.62262 -0.31616,-0.51155 0.80172,-0.93009 2.48418,-0.93009 1.68246,0 3.05902,-0.36991 3.05902,-0.82203 0,-0.45211 -1.79942,-0.75482 -3.99871,-0.67268 -3.66223,0.13677 -3.8726,0.01 -2.5,-1.50672 1.89885,-2.0982 1.89848,-3.74166 -0.001,-5.64143 -1.67053,-1.67024 -1.97553,-3.35714 -0.60728,-3.35714 0.49116,0 1.161,-0.69837 1.48855,-1.55194 0.32754,-0.85356 0.18178,-1.29622 -0.32392,-0.98369 -0.50569,0.31254 -1.22473,0.0743 -1.59785,-0.52943 -0.41092,-0.66488 0.0547,-1.0202 1.1809,-0.90116 4.25777,0.45005 7.85923,-0.0645 6.49616,-0.92804 -1.15087,-0.72914 -1.15087,-0.95638 0,-1.4592 0.74973,-0.32755 0.23815,-0.49453 -1.13685,-0.37105 -1.375,0.12348 -2.83061,0.67451 -3.23469,1.22451 -0.45499,0.61931 -0.74051,0.52413 -0.75,-0.25 -0.008,-0.6875 -0.69031,-1.25 -1.51531,-1.25 -2.64158,0 -1.60224,-1.55532 1.19398,-1.78675 1.48169,-0.12262 3.0498,-0.78327 3.48469,-1.4681 0.59087,-0.93046 0.79844,-0.86605 0.82133,0.25485 0.0272,1.33333 0.13833,1.33333 1,0 0.64625,-1 0.97448,-1.08333 0.98469,-0.25 0.008,0.6875 0.69031,1.25 1.51531,1.25 1.78736,0 1.77661,-0.0919 0.43839,3.7469 -0.88275,2.53225 -1.54999,3.01153 -3.96024,2.84466 -2.26932,-0.1571 -2.66556,0.0802 -1.82508,1.09287 0.59045,0.71145 1.57714,0.98231 2.19266,0.6019 1.52223,-0.94079 4.65427,-1.11433 4.65427,-0.25788 0,0.38181 1.125,0.47915 2.5,0.2163 1.375,-0.26285 2.5,-0.87926 2.5,-1.3698 0,-0.73005 1.63174,-0.10693 4.92071,1.87909 0.23139,0.13972 -0.44361,1.07851 -1.5,2.0862 -1.74447,1.66405 -2.04289,1.68661 -3.25235,0.24596 -1.19982,-1.42919 -1.27716,-1.41298 -0.78138,0.1638 0.30264,0.9625 0.11437,1.75 -0.41836,1.75 -0.53274,0 -0.97551,-0.5625 -0.98393,-1.25 -0.0102,-0.83333 -0.33844,-0.75 -0.98469,0.25 -0.82491,1.27646 -0.97166,1.23453 -0.98469,-0.28133 -0.0119,-1.3896 -0.73832,-1.73263 -3.30321,-1.55989 -1.80834,0.12178 -3.90287,-0.15865 -4.65451,-0.62319 -0.98096,-0.60626 -1.13778,-0.47436 -0.55573,0.46743 0.6041,0.97745 0.26064,1.16813 -1.34687,0.74776 -1.18676,-0.31034 -1.90557,-0.15623 -1.59735,0.34248 0.30822,0.49871 1.23539,0.90674 2.06039,0.90674 0.825,0 1.24111,0.41891 0.92468,0.9309 -0.31644,0.512 -0.11799,1.21356 0.44098,1.55902 0.55897,0.34546 1.00942,1.16406 1.001,1.8191 -0.009,0.73303 -0.42322,0.6142 -1.07613,-0.30902 -0.94295,-1.33333 -1.01538,-1.33333 -0.65182,0 0.22494,0.825 1.20266,1.65386 2.17269,1.84192 1.36396,0.26443 1.61917,-0.11342 1.12605,-1.66712 -0.54161,-1.70646 -0.29258,-1.91899 1.65344,-1.41111 1.26009,0.32886 2.84851,1.15435 3.5298,1.83442 0.70173,0.70045 2.97766,1.0968 5.25,0.91427 3.39063,-0.27235 4.01128,-0.0275 4.01128,1.58271 0,1.0477 -0.47656,1.90491 -1.05902,1.90491 -0.58246,0 -0.72108,0.5625 -0.30804,1.25 0.51028,0.84936 0.20868,0.81011 -0.94098,-0.12244 C 665.49851,132.23509 665,132.17882 665,133.01218 c 0,0.64981 -0.41372,0.92577 -0.91938,0.61326 -0.50566,-0.31252 -1.69093,0.20333 -2.63393,1.14634 -2.13184,2.13183 -0.15978,3.12559 2.27889,1.14837 1.40185,-1.13659 1.52742,-1.12731 0.81187,0.06 -0.54834,0.90983 -0.47163,1.17284 0.2178,0.74675 1.54781,-0.95659 4.24475,0.32349 4.24475,2.01475 0,0.79861 -0.45,1.17391 -1,0.83399 -0.55,-0.33992 -1,-0.17898 -1,0.35765 0,0.53663 0.5625,1.20266 1.25,1.48007 0.6875,0.27741 -0.4007,0.53991 -2.41821,0.58333 -2.01752,0.0434 -4.38002,0.35209 -5.25,0.68594 -1.09472,0.42008 -1.57707,0.0352 -1.56648,-1.25 0.0117,-1.42323 0.21612,-1.54008 0.875,-0.50023 0.5993,0.94581 1.06688,1.02153 1.54371,0.25 0.81343,-1.31616 0.44663,-1.41823 -5.56479,-1.54852 -3.15681,-0.0684 -4.48787,0.272 -4.18182,1.06954 0.62091,1.61808 -0.80772,2.25982 -3.14306,1.41186 z M 666,140.07561 c 0,-0.55 -0.675,-1 -1.5,-1 -0.825,0 -1.5,0.45 -1.5,1 0,0.55 0.675,1 1.5,1 0.825,0 1.5,-0.45 1.5,-1 z m -7,-4 c 0,-0.55 -0.42344,-1 -0.94098,-1 -0.51754,0 -1.2191,0.45 -1.55902,1 -0.33992,0.55 0.0835,1 0.94098,1 0.85746,0 1.55902,-0.45 1.55902,-1 z m -4,6.60699 c 0,-0.21616 0.69837,-0.661 1.55194,-0.98855 0.88992,-0.34149 1.29132,-0.17385 0.94098,0.39301 C 656.90566,143.03727 655,143.49251 655,142.6826 Z m -2,-19 c 0,-0.21616 0.675,-0.65203 1.5,-0.96862 0.825,-0.31658 1.5,-0.13972 1.5,0.39301 0,0.53274 -0.675,0.96862 -1.5,0.96862 -0.825,0 -1.5,-0.17686 -1.5,-0.39301 z m 7.68513,-6.98513 c -0.29086,-0.75798 -0.024,-1.88298 0.59301,-2.5 0.82915,-0.82915 0.80876,-1.12186 -0.0781,-1.12186 -0.66,0 -1.19311,-0.7875 -1.18469,-1.75 0.013,-1.48144 0.15964,-1.52174 0.95574,-0.26261 0.75868,1.19996 0.91097,1.09644 0.78802,-0.53571 -0.0898,-1.19243 -0.86269,-2.02311 -1.88231,-2.02311 -0.95146,0 -1.5114,0.35357 -1.24432,0.78572 0.7029,1.13732 -0.0371,0.97699 -3.26813,-0.70813 l -2.86431,-1.49384 2.69098,-0.006 c 1.48004,-0.003 2.98261,-0.47801 3.33903,-1.05472 0.38078,-0.61612 1.12684,-0.69092 1.80902,-0.18136 0.63853,0.47695 2.4911,0.95143 4.1168,1.05439 1.62571,0.10296 3.37874,0.6101 3.89561,1.12697 0.58637,0.58637 -0.24315,0.79007 -2.20583,0.54168 -2.26642,-0.28684 -3.14561,0.008 -3.14561,1.05439 0,0.79887 0.675,1.50874 1.5,1.57749 0.825,0.0687 2.05634,0.18125 2.7363,0.25 0.67997,0.0687 1.37916,1.025 1.55376,2.125 0.19565,1.23264 0.009,1.55875 -0.4863,0.84995 -0.44207,-0.63253 -1.70376,-1.30753 -2.80376,-1.5 -1.54584,-0.27048 -2.07185,0.27451 -2.31642,2.40005 -0.33766,2.93452 -1.62711,3.64253 -2.49845,1.37186 z m 6.81487,0.37814 c 0.33992,-0.55 0.81648,-1 1.05902,-1 0.24254,0 0.44098,0.45 0.44098,1 0,0.55 -0.47656,1 -1.05902,1 -0.58246,0 -0.7809,-0.45 -0.44098,-1 z m -19.5,-9 c 0,-0.55 0.45,-1 1,-1 0.55,0 1,0.45 1,1 0,0.55 -0.45,1 -1,1 -0.55,0 -1,-0.45 -1,-1 z m 2.27238,-0.93545 c -1.03334,-1.65465 -0.9444,-1.91555 0.61307,-1.79823 1.23397,0.093 1.67005,0.71744 1.35153,1.93546 -0.57734,2.20775 -0.49661,2.21339 -1.9646,-0.13723 z"
       style="fill:#21983e" />
  </g>
</svg>
