<svg focusable="false" id="capa1" viewBox="0 0 24 24" xmlns="http://www.w3.org/2000/svg"><circle cx="12.01" cy="9.32" r="1.93"></circle><path d="M11.98,21.85c0.01,0,0.01,0,0.02,0s0.01,0,0.02,0c0.67,0,0.89-0.48,1.14-1.09 c0.26-0.59,0.75-1.71,1.29-2.53c0.57-0.85,1.16-1.58,1.75-2.29c1.52-1.87,2.96-3.62,2.96-6.65c0.02-3.94-3.19-7.15-7.14-7.15 c-0.01,0-0.01,0-0.02,0s-0.01,0-0.02,0c-3.95,0-7.15,3.21-7.15,7.15c0,3.03,1.44,4.8,2.96,6.65c0.58,0.71,1.17,1.44,1.75,2.29 c0.54,0.82,1.04,1.93,1.29,2.53C11.1,21.37,11.31,21.85,11.98,21.85z M9.35,14.69C7.88,12.9,6.83,11.62,6.83,9.3 c0-2.84,2.31-5.15,5.15-5.15c0.01,0,0.01,0,0.02,0s0.01,0,0.02,0c2.84,0,5.15,2.31,5.15,5.15c0.01,2.32-1.04,3.61-2.5,5.39 c-0.58,0.71-1.24,1.52-1.87,2.45c-0.3,0.44-0.56,0.94-0.8,1.4c-0.24-0.46-0.5-0.97-0.8-1.4C10.59,16.2,9.93,15.4,9.35,14.69z"></path></svg>
